<?xml version="1.0" encoding="UTF-8"?>
<svg version="1.1" xmlns="http://www.w3.org/2000/svg" width="2048" height="2048">
<path d="M0 0 C675.84 0 1351.68 0 2048 0 C2048 675.84 2048 1351.68 2048 2048 C1372.16 2048 696.32 2048 0 2048 C0 1372.16 0 696.32 0 0 Z " fill="#FEFEFE" transform="translate(0,0)"/>
<path d="M0 0 C29.37 0 58.74 0 89 0 C89 68.97 89 137.94 89 209 C147.74 209 206.48 209 267 209 C267 237.71 267 266.42 267 296 C207.93 296 148.86 296 88 296 C88 362 88 428 88 496 C58.96 496 29.92 496 0 496 C0 332.32 0 168.64 0 0 Z " fill="#202339" transform="translate(649,779)"/>
<path d="M0 0 C1.06416138 -0.00116821 2.12832275 -0.00233643 3.22473145 -0.00354004 C6.72677127 0.00201417 10.22536517 0.0641463 13.72680664 0.12695312 C16.16059001 0.14188097 18.59439747 0.15326542 21.0282135 0.16125488 C27.42228 0.19174506 33.81488391 0.27028503 40.20837402 0.35888672 C46.73710343 0.44084324 53.26607006 0.47728755 59.79516602 0.51757812 C72.59722095 0.60327903 85.39826399 0.73820544 98.19946289 0.90820312 C98.19946289 2.90820312 98.19946289 2.90820312 96.02758789 5.18164062 C95.09430664 6.08140625 94.16102539 6.98117187 93.19946289 7.90820312 C87.85172535 13.56384071 82.63927776 19.27793253 77.76196289 25.34570312 C73.91707064 30.12602534 69.82728317 34.60303269 65.63671875 39.07641602 C62.55967304 42.37998071 59.6428852 45.75231719 56.82446289 49.28320312 C52.59096028 54.56353547 48.00340656 59.44377937 43.35668945 64.35644531 C39.17537371 68.80008265 35.28026795 73.39619083 31.47290039 78.16601562 C28.82603857 81.35862215 26.0337683 84.3825821 23.19946289 87.40820312 C18.72023671 92.19129641 14.51494241 97.1163604 10.41040039 102.22851562 C8.09011339 105.04073627 5.66875155 107.72617575 3.19946289 110.40820312 C-0.0938541 113.98612776 -3.24705032 117.62359978 -6.30053711 121.40820312 C-10.14005512 126.16704236 -14.1991339 130.66883287 -18.33959961 135.16601562 C-20.71093606 137.80836195 -22.95306708 140.51514479 -25.17553711 143.28320312 C-28.52847224 147.43895372 -32.03058626 151.38657571 -35.67553711 155.28320312 C-40.60870328 160.5602173 -45.31310406 165.9863847 -49.95288086 171.52148438 C-57.87504486 180.96980957 -66.01189011 190.21554185 -74.37866211 199.27148438 C-76.98800175 202.1122977 -79.53137766 205.00213888 -82.05834961 207.91601562 C-84.1155411 210.26840948 -86.20650626 212.58855278 -88.30053711 214.90820312 C-90.99037142 217.88883033 -93.66364075 220.88065545 -96.30053711 223.90820312 C-100.41136138 228.6252319 -104.60795971 233.26390021 -108.80053711 237.90820312 C-110.3008239 239.57461164 -111.80082583 241.24127665 -113.30053711 242.90820312 C-115.57225 245.43320805 -117.84489125 247.95733616 -120.12084961 250.47851562 C-123.51926643 254.24557427 -126.90870321 258.01735899 -130.23803711 261.84570312 C-133.89111667 266.04123534 -137.6455926 270.14193866 -141.39428711 274.25195312 C-143.38702664 276.45173053 -145.35391851 278.66775531 -147.30053711 280.90820312 C-150.85740918 285.00196154 -154.51332086 289.00242748 -158.17553711 293.00195312 C-160.19755282 295.24061338 -162.1867246 297.49759715 -164.16381836 299.77539062 C-167.67040368 303.79455705 -171.31313568 307.66843827 -174.98803711 311.53320312 C-180.43476754 317.29390718 -185.67808455 323.18067584 -190.79223633 329.23730469 C-193.79707702 332.78221432 -196.89837579 336.12624676 -200.23803711 339.35351562 C-202.5756051 341.67939577 -204.69864819 344.17769822 -206.85131836 346.67382812 C-209.13074404 349.28671689 -211.46266064 351.84750333 -213.80053711 354.40820312 C-216.66525526 357.54903869 -219.51239613 360.69921068 -222.30053711 363.90820312 C-225.93360958 368.08966389 -229.67251576 372.17194585 -233.40600586 376.26367188 C-235.33588805 378.39504258 -237.23476655 380.54414642 -239.11303711 382.72070312 C-242.42155635 386.53218016 -245.85840973 390.21792463 -249.30053711 393.90820312 C-254.49208285 399.4757137 -259.63298161 405.07030449 -264.48022461 410.94335938 C-265.01905273 411.59175781 -265.55788086 412.24015625 -266.11303711 412.90820312 C-266.58354492 413.48570312 -267.05405273 414.06320312 -267.53881836 414.65820312 C-268.80053711 415.90820312 -268.80053711 415.90820312 -270.80053711 415.90820312 C-270.80053711 279.28820313 -270.80053711 142.66820312 -270.80053711 1.90820312 C-246.09609573 4.9962583 -224.8522447 18.0515555 -208.80053711 36.90820312 C-205.74085684 41.06570888 -203.20224369 45.34284457 -200.80053711 49.90820312 C-200.48890625 50.49327637 -200.17727539 51.07834961 -199.85620117 51.68115234 C-191.72021125 67.17450879 -188.62812966 83.10998495 -188.68701172 100.55664062 C-188.68686569 101.69897659 -188.68671967 102.84131256 -188.68656921 104.01826477 C-188.6872628 107.77326391 -188.69502921 111.52821271 -188.70288086 115.28320312 C-188.70474701 117.89493788 -188.70616998 120.50667298 -188.70716858 123.1184082 C-188.7102675 129.27698708 -188.71846136 135.43554805 -188.72851807 141.59411907 C-188.73972406 148.60988808 -188.74520093 155.62565798 -188.7502135 162.64143372 C-188.76064528 177.06369939 -188.77821667 191.48595101 -188.80053711 205.90820312 C-180.40022009 197.52099927 -172.44581551 188.84726828 -165.01147461 179.58789062 C-162.6911876 176.77566998 -160.26982577 174.0902305 -157.80053711 171.40820312 C-153.78079175 167.0364985 -150.00065516 162.53033427 -146.26928711 157.91210938 C-142.32434417 153.11201267 -138.22795777 148.44521768 -134.14819336 143.75976562 C-130.88700888 140.0140027 -127.65317317 136.24537885 -124.42553711 132.47070312 C-121.40058451 128.93489974 -118.3726212 125.40325532 -115.30053711 121.90820312 C-112.20961707 118.39069122 -109.15922433 114.83942486 -106.11303711 111.28320312 C-105.60087646 110.68540039 -105.08871582 110.08759766 -104.56103516 109.47167969 C-101.92939375 106.39850416 -99.30074009 103.32281774 -96.67553711 100.24414062 C-92.2118615 95.01504094 -87.74073115 89.80634606 -83.11303711 84.72070312 C-79.26202706 80.48112269 -75.65209756 76.07888201 -72.05053711 71.62695312 C-69.15695822 68.1305453 -66.10704528 64.79312181 -63.05053711 61.43945312 C-60.72191658 58.81975503 -58.50490764 56.13305003 -56.30053711 53.40820312 C-52.64039633 48.88722784 -48.83271871 44.54130921 -44.91772461 40.24023438 C-43.02002542 38.14996423 -41.15320296 36.03834198 -39.30053711 33.90820312 C-36.71400399 30.93428601 -34.07859586 28.01039569 -31.42553711 25.09570312 C-27.51076633 20.76149261 -23.79311089 16.29742335 -20.13647461 11.74414062 C-19.36561523 10.80828125 -18.59475586 9.87242187 -17.80053711 8.90820312 C-17.34524848 8.24984718 -16.88995985 7.59149124 -16.4208746 6.91318512 C-11.5903076 0.46110009 -7.82430902 -0.22638833 0 0 Z " fill="#EDAA35" transform="translate(1301.800537109375,778.091796875)"/>
<path d="M0 0 C0 163.35 0 326.7 0 495 C-18.93210982 492.47571869 -33.49038957 487.19119871 -48 475 C-49.09248047 474.12601563 -49.09248047 474.12601563 -50.20703125 473.234375 C-65.50588366 460.48086581 -75.60639046 442.25865515 -80 423 C-80.21140625 422.15824219 -80.4228125 421.31648438 -80.640625 420.44921875 C-82.93950878 410.94169226 -83.14610207 401.52537334 -83.13371277 391.79187012 C-83.13597833 390.47971008 -83.13824388 389.16755004 -83.14057809 387.81562757 C-83.1466661 384.19342568 -83.14656606 380.57124697 -83.14538372 376.94904113 C-83.14517896 373.03487658 -83.15070552 369.12071934 -83.15544128 365.20655823 C-83.16373114 357.54657185 -83.16649534 349.88659317 -83.16705366 342.22660267 C-83.16752946 335.99977644 -83.16958741 329.77295275 -83.17275429 323.54612732 C-83.18155511 305.88154372 -83.18617438 288.21696619 -83.18542381 270.55238038 C-83.18538386 269.60100794 -83.1853439 268.6496355 -83.18530273 267.66943359 C-83.18526185 266.71689656 -83.18522097 265.76435953 -83.18517885 264.78295773 C-83.1847722 249.33783456 -83.19434815 233.89273574 -83.2084411 218.44761962 C-83.22280643 202.57852535 -83.22971125 186.70944297 -83.22884732 170.84034204 C-83.22851549 161.93500902 -83.23125708 153.02970155 -83.24202538 144.12437439 C-83.25113227 136.54470179 -83.25330394 128.96506634 -83.24651595 121.38539064 C-83.24325216 117.51997849 -83.24318908 113.65463762 -83.2518692 109.78923225 C-83.26118973 105.59547757 -83.2549548 101.40188779 -83.24723816 97.20812988 C-83.25238172 95.99149013 -83.25752529 94.77485038 -83.26282471 93.52134275 C-83.23635606 87.01445584 -82.66911001 81.29259772 -81 75 C-80.78859375 74.00613281 -80.5771875 73.01226563 -80.359375 71.98828125 C-75.02512257 48.56544206 -60.7063874 27.45672733 -40.5625 14.25 C-30.38530395 8.12350096 -20.53988274 3.89984167 -9 1 C-8.3090625 0.80019531 -7.618125 0.60039063 -6.90625 0.39453125 C-5 0 -5 0 0 0 Z " fill="#9A9EA2" transform="translate(1017,780)"/>
<path d="M0 0 C3.19792499 1.37214095 4.92916858 2.81254231 7.03125 5.5703125 C7.58844727 6.29387939 8.14564453 7.01744629 8.71972656 7.76293945 C9.60096191 8.93215942 9.60096191 8.93215942 10.5 10.125 C11.11584961 10.9296167 11.73169922 11.7342334 12.36621094 12.56323242 C14.25365516 15.03510507 16.12893715 17.51571074 18 20 C18.54849609 20.72751465 19.09699219 21.4550293 19.66210938 22.20458984 C22.18859931 25.56042756 24.70609589 28.92285729 27.21875 32.2890625 C30.49804547 36.67568172 33.84253497 41.01099486 37.1875 45.34765625 C45.94573065 56.71081654 54.65184422 68.10975884 63.125 79.6875 C68.25765535 86.69921683 73.52435856 93.5904043 78.88232422 100.43115234 C83.24608603 106.00836663 87.51591594 111.64927192 91.75146484 117.32421875 C95.51785703 122.36780017 99.34296232 127.36331173 103.1875 132.34765625 C112.48938088 144.41616273 121.70589922 156.54194865 130.70996094 168.83447266 C135.73227331 175.67520847 140.87576084 182.41944525 146.03466797 189.1574707 C150.46423438 194.95381051 154.81810748 200.79957327 159.125 206.6875 C164.32127363 213.78717598 169.65473136 220.76500534 175.07788086 227.69262695 C179.80533774 233.73262929 184.42712797 239.84226945 189 246 C189.57363281 246.72445313 190.14726563 247.44890625 190.73828125 248.1953125 C192 250 192 250 192 252 C178.03131877 252.42228561 164.06363911 252.73754573 150.08986473 252.93261909 C143.59963972 253.02628708 137.113722 253.15313432 130.62597656 253.35791016 C124.3556001 253.55456971 118.08934382 253.66132253 111.81612015 253.70779037 C109.4322789 253.74086631 107.04864553 253.80546966 104.66657639 253.90314102 C86.51101209 254.6174585 86.51101209 254.6174585 80.62677383 250.23076057 C76.41085387 245.99249294 73.20722434 241.23472261 70.21942139 236.0781002 C68.71094481 233.50740108 66.96683369 231.17066247 65.1328125 228.82421875 C64.12806823 227.44687111 63.12540333 226.0680038 62.125 224.6875 C57.1622521 217.89637129 52.11329775 211.17845525 47 204.5 C41.93337023 197.88061507 36.9257365 191.22490289 32 184.5 C26.36280971 176.80551751 20.61358203 169.20250844 14.8203125 161.625 C10.85368098 156.43609249 6.90939433 151.23215192 3 146 C-3.62642159 137.13751602 -10.33943416 128.34139589 -17.05566406 119.546875 C-18.8798129 117.15743242 -20.70192198 114.76645025 -22.5234375 112.375 C-25.16529858 108.9079197 -27.81731395 105.44879987 -30.47412109 101.99316406 C-32.04012103 99.9475923 -33.59249058 97.89211346 -35.14453125 95.8359375 C-36.13758638 94.53612629 -37.13105661 93.2366321 -38.125 91.9375 C-38.79946167 91.03366577 -38.79946167 91.03366577 -39.48754883 90.11157227 C-40.58850831 88.68432419 -41.78706002 87.33338872 -43 86 C-45.96510362 85.67947204 -45.96510362 85.67947204 -47.60644531 87.34179688 C-48.17459961 87.96119141 -48.74275391 88.58058594 -49.328125 89.21875 C-49.96363281 89.90453125 -50.59914063 90.5903125 -51.25390625 91.296875 C-51.91261719 92.02390625 -52.57132813 92.7509375 -53.25 93.5 C-53.89324219 94.19609375 -54.53648438 94.8921875 -55.19921875 95.609375 C-58.9808391 99.7181778 -62.67214966 103.90008959 -66.33886719 108.11132812 C-68.84086498 110.95604519 -71.41718595 113.72881562 -74 116.5 C-78.4162484 121.26267474 -82.79183034 126.05102786 -87 131 C-87.84435104 131.79507965 -88.68870209 132.5901593 -89.55863953 133.40933228 C-93.22865438 137.85937338 -92.70426869 142.80244116 -92.65942383 148.32958984 C-92.66990753 149.46188019 -92.68039124 150.59417053 -92.69119263 151.76077271 C-92.71993867 155.49443986 -92.71365105 159.22717952 -92.70703125 162.9609375 C-92.72014643 165.55312258 -92.73545008 168.14529744 -92.75285339 170.73745728 C-92.78866274 176.85721107 -92.80243908 182.97664921 -92.8054778 189.09649527 C-92.81063374 196.75063819 -92.84960231 204.40456166 -92.88867188 212.05859375 C-92.95818439 225.7057919 -92.97669624 239.35247106 -93 253 C-120.39 253 -147.78 253 -176 253 C-176.185625 243.47125 -176.37125 233.9425 -176.5625 224.125 C-176.64443604 221.1358252 -176.72637207 218.14665039 -176.81079102 215.06689453 C-176.83709985 212.6722374 -176.86002833 210.27753974 -176.87890625 207.8828125 C-176.9479718 206.04867798 -176.9479718 206.04867798 -177.01843262 204.17749023 C-177.02461604 197.37435252 -176.30317761 193.55367369 -171.70288086 188.39013672 C-170.16244084 186.898166 -168.59547689 185.43296392 -167 184 C-165.61949456 182.63052758 -164.24353738 181.25643239 -162.875 179.875 C-162.21757813 179.22660156 -161.56015625 178.57820313 -160.8828125 177.91015625 C-158.4865284 175.47907135 -156.27181879 172.91929387 -154.046875 170.33203125 C-151.41833259 167.33729877 -148.71071714 164.42025929 -146 161.5 C-142.21096256 157.41449982 -138.4782738 153.29605853 -134.83203125 149.08203125 C-131.99999277 145.86353123 -129.08972052 142.71706589 -126.18725586 139.56225586 C-123.27195596 136.39202282 -120.37609236 133.20596675 -117.5 130 C-114.15114887 126.26705124 -110.77031957 122.56556475 -107.375 118.875 C-104.37815586 115.6161367 -101.40085344 112.34500325 -98.5 109 C-91.18613069 100.58474801 -83.52631514 92.48194126 -75.875 84.375 C-68.98668473 77.07496194 -62.21206174 69.69934968 -55.625 62.125 C-52.17012953 58.15591625 -48.60742765 54.28822573 -45.04296875 50.41796875 C-42.53103792 47.68581385 -40.04923179 44.93517913 -37.625 42.125 C-34.93602793 39.01587604 -32.14996747 36.01097732 -29.33813477 33.01367188 C-24.00714955 27.33093432 -18.93325016 21.55718769 -14.0625 15.46875 C-11.46295009 12.35716753 -8.638307 9.54733972 -5.73046875 6.7265625 C-3.62554791 4.62639317 -1.78303291 2.37737721 0 0 Z " fill="#21233A" transform="translate(1206,1023)"/>
<path d="M0 0 C24.70444138 3.08805517 45.94829241 16.14335238 62 35 C65.05968027 39.15750575 67.59829342 43.43464145 70 48 C70.31163086 48.58507324 70.62326172 49.17014648 70.94433594 49.77294922 C78.74869925 64.63478949 82.07262964 80.1175619 82.23223877 96.87872314 C82.24493797 97.84489366 82.25763717 98.81106418 82.2707212 99.80651259 C82.31168131 103.02884822 82.34589879 106.25121659 82.37988281 109.47363281 C82.40748495 111.79029122 82.43533867 114.10694665 82.46342468 116.42359924 C82.71184238 137.5278692 82.88675276 158.63305482 83.04321671 179.73819351 C83.06429227 182.55935031 83.08553427 185.3805058 83.10693359 188.20166016 C83.11224412 188.90276412 83.11755465 189.60386808 83.1230261 190.32621762 C83.21024526 201.68301154 83.33932579 213.03894904 83.48462167 224.39513221 C83.63322397 236.0750576 83.73967854 247.75480803 83.80661082 259.43549037 C83.84586859 265.98581155 83.90403057 272.53469331 84.00839996 279.0843277 C84.10584719 285.24720859 84.15076436 291.40828521 84.15607643 297.57191277 C84.16708755 299.82786266 84.19689653 302.083815 84.24734306 304.33922768 C84.65026992 323.14089412 84.65026992 323.14089412 79.1511972 329.66086555 C76.90794527 331.95468177 74.49464991 333.98617526 72 336 C70.82524709 337.2224397 69.66653941 338.46128631 68.546875 339.734375 C68.07677002 340.24121826 67.60666504 340.74806152 67.12231445 341.27026367 C62.91413572 345.80784975 58.75046261 350.37174174 54.69921875 355.05078125 C50.4253204 359.95348303 46.03080529 364.75112166 41.671875 369.578125 C38.33532397 373.27783805 35.00681019 376.97980101 31.75 380.75 C28.41821643 384.57999419 24.96193276 388.28817163 21.5 392 C16.30847941 397.56753679 11.16755744 403.16209901 6.3203125 409.03515625 C5.78148437 409.68355469 5.24265625 410.33195312 4.6875 411 C4.21699219 411.5775 3.74648437 412.155 3.26171875 412.75 C2 414 2 414 0 414 C0 277.38 0 140.76 0 0 Z " fill="#EE6E28" transform="translate(1031,780)"/>
<path d="M0 0 C0.33 0 0.66 0 1 0 C2.41120129 29.67273707 1.92586107 59.34533403 1.60510254 89.03912354 C1.53258234 95.818344 1.46904798 102.59765491 1.40429688 109.37695312 C1.27810655 122.58473415 1.13848985 135.79232956 1 149 C-26.39 149 -53.78 149 -82 149 C-82.185625 139.47125 -82.37125 129.9425 -82.5625 120.125 C-82.64443604 117.1358252 -82.72637207 114.14665039 -82.81079102 111.06689453 C-82.83709985 108.6722374 -82.86002833 106.27753974 -82.87890625 103.8828125 C-82.92494995 102.66005615 -82.97099365 101.4372998 -83.01843262 100.17749023 C-83.02461604 93.37435252 -82.30317761 89.55367369 -77.70288086 84.39013672 C-76.16244084 82.898166 -74.59547689 81.43296392 -73 80 C-71.61949456 78.63052758 -70.24353738 77.25643239 -68.875 75.875 C-68.21757813 75.22660156 -67.56015625 74.57820313 -66.8828125 73.91015625 C-64.4865284 71.47907135 -62.27181879 68.91929387 -60.046875 66.33203125 C-57.41833259 63.33729877 -54.71071714 60.42025929 -52 57.5 C-48.21096256 53.41449982 -44.4782738 49.29605853 -40.83203125 45.08203125 C-37.99999277 41.86353123 -35.08972052 38.71706589 -32.18725586 35.56225586 C-29.27195596 32.39202282 -26.37609236 29.20596675 -23.5 26 C-20.15114939 22.26705183 -16.77035696 18.56553004 -13.375 14.875 C-9.60469997 10.77579589 -5.88690909 6.63726576 -2.2421875 2.42578125 C-1.51888012 1.59556994 -0.7785963 0.7785963 0 0 Z " fill="#10717E" transform="translate(1112,1127)"/>
<path d="M0 0 C6.92089007 4.85451004 12.83798155 10.64526537 15 19 C16.18706035 28.03021814 16.13891786 37.19645806 11 45 C10.54109375 45.71671875 10.0821875 46.4334375 9.609375 47.171875 C4.6810068 54.27910072 -1.53242321 58.28676394 -10 60 C-20.91629165 61.05971018 -29.6081238 59.7315198 -38.3125 52.875 C-43.7742458 47.7670515 -47.74025085 40.2109333 -48.203125 32.70703125 C-48.33494833 21.75470962 -47.19754477 13.57141058 -39.31640625 5.21484375 C-28.22604116 -5.29534127 -13.56184353 -7.35591221 0 0 Z " fill="#232333" transform="translate(865,1665)"/>
<path d="M0 0 C7.7780739 4.54964049 13.20893205 9.91738499 16.375 18.4375 C16.90077677 21.42114903 16.94951412 24.28884663 16.875 27.3125 C16.86291504 28.10116455 16.85083008 28.8898291 16.83837891 29.70239258 C16.54623736 38.30286269 14.21329396 45.43779399 8.28515625 51.8359375 C-0.8299723 59.47847882 -10.03317209 61.37340306 -21.625 60.4375 C-28.80909187 58.76958497 -34.91376085 55.12730488 -39.625 49.4375 C-45.14126331 40.1596018 -47.86312756 32.28302118 -46.625 21.4375 C-43.41576419 11.82125413 -37.8517367 4.74851731 -29.25 -0.5 C-20.14639092 -4.66323586 -8.97155439 -4.19273648 0 0 Z " fill="#222234" transform="translate(1276.625,1664.5625)"/>
<path d="M0 0 C8.15262075 3.77880757 14.05035901 9.25873151 18.17578125 17.2421875 C19.65769571 21.45858697 19.98929653 24.86449798 19.92578125 29.2890625 C19.91748291 30.03599365 19.90918457 30.7829248 19.90063477 31.55249023 C19.62022308 40.75817632 16.75451428 47.55487817 10.4140625 54.2890625 C7.38954688 56.93934799 4.20710884 58.51366966 0.48828125 59.9765625 C-0.41921875 60.3890625 -1.32671875 60.8015625 -2.26171875 61.2265625 C-11.46487362 63.35036747 -20.13243231 62.32090024 -28.51171875 57.9765625 C-36.07641533 53.10985498 -39.71829479 46.35683439 -42.51171875 37.9765625 C-43.68433889 19.61832919 -43.68433889 19.61832919 -38.51171875 12.9765625 C-37.76535156 11.95175781 -37.76535156 11.95175781 -37.00390625 10.90625 C-32.9153576 5.75277706 -28.41312543 2.77702636 -22.51171875 -0.0234375 C-16.46508853 -3.04675261 -6.31262086 -1.8397182 0 0 Z " fill="#222233" transform="translate(1114.51171875,1663.0234375)"/>
<path d="M0 0 C5.61 -0.0825 11.22 -0.165 17 -0.25 C18.75441406 -0.28641602 20.50882813 -0.32283203 22.31640625 -0.36035156 C23.73175845 -0.3720513 25.14712428 -0.38224007 26.5625 -0.390625 C27.27728516 -0.41108887 27.99207031 -0.43155273 28.72851562 -0.45263672 C35.10897348 -0.45698308 40.29253822 1.56482565 45.05859375 5.8515625 C45.74115234 6.72941406 45.74115234 6.72941406 46.4375 7.625 C46.91058594 8.21539063 47.38367188 8.80578125 47.87109375 9.4140625 C51.17642232 14.05753447 50.59071481 19.52558483 50 25 C47.7032075 31.57912991 43.00795934 34.89911776 37 38 C39.71219872 42.98715044 42.70061126 47.39124106 46.25 51.8125 C51 57.72998596 51 57.72998596 51 60 C46.3708641 60.99353473 42.59829141 61.24143937 38 60 C31.90423851 54.89931877 27.89875656 47.2468914 25 40 C20.38 40 15.76 40 11 40 C11 46.93 11 53.86 11 61 C7.37 61 3.74 61 0 61 C0 40.87 0 20.74 0 0 Z " fill="#202031" transform="translate(895,1663)"/>
<path d="M0 0 C33.35897436 0 33.35897436 0 42.4375 6.4375 C47.00537095 11.00537095 48.43034775 14.32540604 48.4375 20.8125 C48.30130764 26.72448673 47.6941965 31.28096189 44 36 C34.28606622 45.00315814 24.44444686 44.20740745 12 44 C12 49.94 12 55.88 12 62 C8.04 62 4.08 62 0 62 C0 41.54 0 21.08 0 0 Z " fill="#252535" transform="translate(759,1662)"/>
<path d="M0 0 C5.96209344 2.74210786 10.22001571 7.16525049 12.671875 13.31640625 C13.50362277 21.16965262 13.7224015 28.87854377 8.671875 35.31640625 C4.29498048 40.09902414 -0.37211877 42.04767841 -6.765625 42.62890625 C-14.74194474 41.92922908 -18.95445312 38.18988137 -24.015625 32.37890625 C-27.39722208 27.06496798 -28.14455143 21.47100552 -27.328125 15.31640625 C-25.35707723 8.57991387 -20.82950117 4.42457677 -15.328125 0.31640625 C-10.86420498 -1.91555376 -4.69069697 -1.37730196 0 0 Z " fill="#FBFBFB" transform="translate(855.328125,1672.68359375)"/>
<path d="M0 0 C5.23588321 2.98423796 8.06090333 8.30930666 10.6875 13.5625 C11.45479997 20.92103255 10.86725465 27.32315609 6.6875 33.5625 C3.17691749 37.27636792 -0.13852314 40.39248386 -5.359375 40.80078125 C-15.35109158 41.00103717 -15.35109158 41.00103717 -19.875 38.9375 C-24.70027971 34.23594541 -28.82079077 29.8920956 -29.61328125 22.9140625 C-29.6515814 14.00289428 -27.68173698 8.07985877 -21.3125 1.5625 C-15.17245531 -2.82324621 -6.87338356 -2.8760031 0 0 Z " fill="#FBFBFB" transform="translate(1271.3125,1673.4375)"/>
<path d="M0 0 C5.6033317 4.24223872 8.54595756 9.50652666 9.625 16.43359375 C9.89954839 22.61951218 8.93059687 27.62325944 5.1875 32.625 C0.68982821 37.41043752 -3.54728754 40.32266551 -10.1875 40.9375 C-16.33858538 40.40723402 -21.50394845 38.04693449 -25.8125 33.625 C-29.82495353 27.50131059 -31.99348933 21.94978775 -30.8125 14.625 C-29.43205838 8.07706454 -26.05789791 3.70601001 -20.8125 -0.375 C-14.18001123 -3.76493871 -6.41824398 -3.78676395 0 0 Z " fill="#FAFAFB" transform="translate(1113.8125,1674.375)"/>
<path d="M0 0 C14.85 0 29.7 0 45 0 C45 3.3 45 6.6 45 10 C33.45 10 21.9 10 10 10 C10 15.28 10 20.56 10 26 C20.56 26 31.12 26 42 26 C42 29.3 42 32.6 42 36 C31.44 36 20.88 36 10 36 C10 43.92 10 51.84 10 60 C6.7 60 3.4 60 0 60 C0 40.2 0 20.4 0 0 Z " fill="#1D1D2E" transform="translate(1018,1663)"/>
<path d="M0 0 C16.17 0 32.34 0 49 0 C49 3.3 49 6.6 49 10 C42.73 10 36.46 10 30 10 C30 26.5 30 43 30 60 C26.37 60 22.74 60 19 60 C19 43.5 19 27 19 10 C12.73 10 6.46 10 0 10 C0 6.7 0 3.4 0 0 Z " fill="#1D1C2D" transform="translate(955,1663)"/>
<path d="M0 0 C3.63 0 7.26 0 11 0 C11 16.5 11 33 11 50 C21.56 50 32.12 50 43 50 C43 53.3 43 56.6 43 60 C28.81 60 14.62 60 0 60 C0 40.2 0 20.4 0 0 Z " fill="#222231" transform="translate(1149,1663)"/>
<path d="M0 0 C1.64574566 -0.02688151 3.29161413 -0.04634123 4.9375 -0.0625 C5.85402344 -0.07410156 6.77054688 -0.08570313 7.71484375 -0.09765625 C10 0 10 0 11 1 C12.51469448 1.23192865 14.03754562 1.41215238 15.5625 1.5625 C16.38878906 1.64628906 17.21507812 1.73007812 18.06640625 1.81640625 C18.70449219 1.87699219 19.34257813 1.93757812 20 2 C20 2.66 20 3.32 20 4 C20.99 4.33 21.98 4.66 23 5 C16.62644352 8.18677824 8.89123078 2.81348178 2 1 C2 137.62 2 274.24 2 415 C2.66 415.33 3.32 415.66 4 416 C3.01 416.33 2.02 416.66 1 417 C-0.45878836 414.08242328 -0.1240304 411.53287046 -0.12304783 408.27269554 C-0.12420167 407.56971277 -0.12535552 406.86673001 -0.12654433 406.14244473 C-0.12921239 403.76310195 -0.12468727 401.38382549 -0.12025452 399.00448608 C-0.12069018 397.29096766 -0.121565 395.5774493 -0.12284368 393.8639313 C-0.12508961 389.13678843 -0.12106603 384.40966803 -0.11606562 379.68252802 C-0.1117627 374.5918544 -0.11320743 369.50118213 -0.1139679 364.4105072 C-0.11449323 355.58441236 -0.11134543 346.75832489 -0.10573006 337.9322319 C-0.09761636 325.17105118 -0.09499997 312.40987404 -0.09374207 299.64869101 C-0.09155134 278.94645605 -0.0848907 258.24422502 -0.07543945 237.54199219 C-0.06626587 217.42708353 -0.05918477 197.31217595 -0.05493164 177.19726562 C-0.05466892 175.95818791 -0.05440619 174.71911019 -0.05413551 173.44248466 C-0.05283051 167.22663637 -0.05156679 161.01078806 -0.05032361 154.79493976 C-0.03995036 103.19662379 -0.02233148 51.59831208 0 0 Z " fill="#FEE4D0" transform="translate(1029,779)"/>
<path d="M0 0 C3.63 0 7.26 0 11 0 C11 20.13 11 40.26 11 61 C7.37 61 3.74 61 0 61 C0 40.87 0 20.74 0 0 Z " fill="#202132" transform="translate(1205,1663)"/>
<path d="M0 0 C2.84625 -0.0825 5.6925 -0.165 8.625 -0.25 C9.51010254 -0.28641602 10.39520508 -0.32283203 11.30712891 -0.36035156 C16.68827905 -0.43544301 19.75397618 0.38351283 24 4 C25.84995114 7.69990228 25.46986842 11.96167141 25 16 C22.89495409 19.55680172 21.91593192 20.69468936 18 22 C16.59175107 22.08021999 15.18002769 22.10765977 13.76953125 22.09765625 C13.04612549 22.09515869 12.32271973 22.09266113 11.57739258 22.09008789 C10.66497803 22.08098389 9.75256348 22.07187988 8.8125 22.0625 C5.904375 22.041875 2.99625 22.02125 0 22 C0 14.74 0 7.48 0 0 Z " fill="#F4F4F5" transform="translate(770,1673)"/>
<path d="M0 0 C3.39668836 -0.1081174 6.78992439 -0.18737188 10.1875 -0.25 C11.14720703 -0.28351563 12.10691406 -0.31703125 13.09570312 -0.3515625 C20.25784723 -0.45069252 20.25784723 -0.45069252 24.11328125 1.890625 C27.03502555 5.15717142 27.39139853 7.55770175 27.359375 11.9609375 C26.7567698 15.38006698 24.63213933 16.93189052 22 19 C19.59940183 20.20029908 18.10639351 20.11459743 15.4296875 20.09765625 C14.62257324 20.09515869 13.81545898 20.09266113 12.98388672 20.09008789 C11.9579541 20.08098389 10.93202148 20.07187988 9.875 20.0625 C4.986875 20.0315625 4.986875 20.0315625 0 20 C0 13.4 0 6.8 0 0 Z " fill="#F6F7F8" transform="translate(906,1673)"/>
<path d="M0 0 C9.89180583 1.23647573 18.96332474 3.79689523 28 8 C28 8.33 28 8.66 28 9 C24.02161673 9.39783833 22.05190104 9.02640579 18.4375 7.1875 C12.80900288 4.20223413 12.80900288 4.20223413 1 2 C1.33 137.96 1.66 273.92 2 414 C1.34 414 0.68 414 0 414 C0 277.38 0 140.76 0 0 Z " fill="#CD8861" transform="translate(1031,780)"/>
<path d="M0 0 C5.68546942 2.93419979 9.94674751 6.40045109 14.4375 10.9375 C15.09492187 11.60136719 15.75234375 12.26523437 16.4296875 12.94921875 C22.07239618 18.80422736 26.25737767 24.74652323 30 32 C30.30873047 32.58217285 30.61746094 33.1643457 30.93554688 33.76416016 C39.09506055 49.29476824 42.17203704 65.25115272 42.11352539 82.74023438 C42.11367142 83.89232391 42.11381744 85.04441345 42.1139679 86.23141479 C42.11327425 90.01887938 42.10550755 93.80629406 42.09765625 97.59375 C42.09579012 100.227905 42.09436714 102.86206035 42.09336853 105.49621582 C42.09026947 111.70791858 42.08207542 117.91960358 42.07201904 124.13129854 C42.06081348 131.20752591 42.05533629 138.28375417 42.05032361 145.35998821 C42.03989152 159.90666793 42.02231986 174.45333372 42 189 C41.34 188.67 40.68 188.34 40 188 C39.98969254 186.71564056 39.97938507 185.43128113 39.96876526 184.10800171 C39.87066924 171.95678319 39.76790391 159.80561177 39.66066074 147.65447044 C39.60568421 141.40866098 39.55230708 135.16284667 39.50268555 128.91699219 C39.45466619 122.88042108 39.40231439 116.84390118 39.34705925 110.80739212 C39.32680449 108.51353876 39.30806562 106.21967145 39.29092598 103.92579269 C39.32863076 81.50779616 39.32863076 81.50779616 36.1875 59.375 C36.01226807 58.57304199 35.83703613 57.77108398 35.65649414 56.94482422 C33.75100462 48.48448477 31.61107017 40.40738748 27 33 C25.92598152 31.11066822 24.86352221 29.21472044 23.8125 27.3125 C23.28269531 26.35988281 22.75289062 25.40726563 22.20703125 24.42578125 C21 22 21 22 21 20 C20.01 20 19.02 20 18 20 C16.61096733 18.37946188 15.28667172 16.70294787 14 15 C11.66167232 12.54475594 9.42702327 10.31161157 6.6875 8.3125 C6.130625 7.879375 5.57375 7.44625 5 7 C5 6.34 5 5.68 5 5 C2.525 4.01 2.525 4.01 0 3 C0 2.01 0 1.02 0 0 Z " fill="#D37641" transform="translate(1071,796)"/>
<path d="M0 0 C1.98 0 3.96 0 6 0 C5.02571033 0.53636517 5.02571033 0.53636517 4.03173804 1.08356601 C1.71448015 2.88408955 1.71448015 2.88408955 1.49679399 5.95664328 C1.4952751 7.17972247 1.49375622 8.40280165 1.49219131 9.66294384 C1.48588756 10.34681997 1.47958381 11.0306961 1.47308904 11.73529574 C1.45672979 14.0439344 1.46902719 16.35154888 1.48101807 18.66020203 C1.47514693 20.32509263 1.46752206 21.98997782 1.458287 23.65485317 C1.43794418 28.24300371 1.44260206 32.83084653 1.45119452 37.41902173 C1.45612262 42.36179135 1.43807538 47.304482 1.42277527 52.2472229 C1.39941815 60.81521574 1.39071671 69.38312385 1.39188385 77.95114708 C1.3935503 90.3391501 1.37324684 102.72703988 1.34752855 115.11501274 C1.30640446 135.21216769 1.28312371 155.30930233 1.27099609 175.40649414 C1.25917507 194.93255568 1.23899276 214.45857895 1.20751953 233.98461914 C1.20558343 235.18759019 1.20364733 236.39056124 1.20165256 237.62998595 C1.19188826 243.66475499 1.1819591 249.69952375 1.17194796 255.73429239 C1.08906891 305.82284281 1.03511912 355.9113949 1 406 C2.98 405.34 4.96 404.68 7 404 C6.02433888 405.16959987 5.044375 406.33561177 4.0625 407.5 C3.51722656 408.1496875 2.97195313 408.799375 2.41015625 409.46875 C1.94480469 409.9740625 1.47945312 410.479375 1 411 C0.67 411 0.34 411 0 411 C0 275.37 0 139.74 0 0 Z " fill="#D6703B" transform="translate(1032,782)"/>
<path d="M0 0 C1.59602303 -0.00153328 1.59602303 -0.00153328 3.22428894 -0.00309753 C6.73144432 0.00176853 10.23597684 0.05616863 13.74267578 0.11108398 C16.17789284 0.12414353 18.61312832 0.13410601 21.04837036 0.14109802 C27.45051055 0.1677947 33.85153485 0.23653408 40.25323486 0.31402588 C46.78862411 0.38569852 53.3241941 0.41761832 59.85986328 0.45288086 C72.67804705 0.52790085 85.49545825 0.64598681 98.31298828 0.79467773 C98.31298828 2.79467773 98.31298828 2.79467773 96.12548828 5.16967773 C93.60687994 7.52037885 91.03940239 9.69144399 88.31298828 11.79467773 C88.64298828 10.14467773 88.97298828 8.49467773 89.31298828 6.79467773 C89.97298828 6.79467773 90.63298828 6.79467773 91.31298828 6.79467773 C91.31298828 5.80467773 91.31298828 4.81467773 91.31298828 3.79467773 C78.23040628 3.83270437 65.14811112 3.89202226 52.06575489 3.97858047 C45.99117255 4.01810212 39.91673619 4.05026773 33.84204102 4.06567383 C27.98041986 4.08080933 22.11919993 4.11520011 16.25775719 4.16298676 C14.02068251 4.17783255 11.78355055 4.18572057 9.54642677 4.18656158 C6.4145484 4.1889233 3.283786 4.21593995 0.15209961 4.2487793 C-0.7743486 4.24374893 -1.70079681 4.23871857 -2.65531921 4.23353577 C-6.96382587 4.3035057 -9.10951714 4.41756266 -12.80195618 6.82879639 C-13.42402451 7.47753723 -14.04609283 8.12627808 -14.68701172 8.79467773 C-15.34701172 8.46467773 -16.00701172 8.13467773 -16.68701172 7.79467773 C-12.18994139 0.57797152 -8.20623871 -0.20701049 0 0 Z " fill="#DFB767" transform="translate(1301.68701171875,778.205322265625)"/>
<path d="M0 0 C0.33 0 0.66 0 1 0 C2.41120129 29.67273707 1.92586107 59.34533403 1.60510254 89.03912354 C1.53258234 95.818344 1.46904798 102.59765491 1.40429688 109.37695312 C1.27810655 122.58473415 1.13848985 135.79232956 1 149 C-26.39 149 -53.78 149 -82 149 C-82 129.53 -82 110.06 -82 90 C-81.67 90 -81.34 90 -81 90 C-81 109.14 -81 128.28 -81 148 C-54.27 148 -27.54 148 0 148 C-0.33 100.81 -0.66 53.62 -1 5 C-2.32 5.33 -3.64 5.66 -5 6 C-3.35830472 3.97945196 -1.69088222 1.97956942 0 0 Z " fill="#629A9F" transform="translate(1112,1127)"/>
<path d="M0 0 C0.99 0.33 1.98 0.66 3 1 C-1.93309469 7.24603721 -7.04611417 13.20897354 -12.5 19 C-17.08814311 23.87807316 -21.43553425 28.86071279 -25.625 34.08984375 C-28.51047928 37.62550504 -31.49891969 41.06244588 -34.5 44.5 C-38.32333947 48.88196573 -42.09155059 53.29060536 -45.75 57.8125 C-49.26564618 62.15573443 -52.95127226 66.30104294 -56.71484375 70.4296875 C-60.62664212 74.82962481 -64.31078806 79.41246931 -68 84 C-69 81 -69 81 -68 78 C-67.34 78 -66.68 78 -66 78 C-66 77.01 -66 76.02 -66 75 C-64.125 72.8125 -64.125 72.8125 -62 71 C-61.34 71 -60.68 71 -60 71 C-59.731875 70.360625 -59.46375 69.72125 -59.1875 69.0625 C-58 67 -58 67 -55 66 C-55 65.01 -55 64.02 -55 63 C-54.34 63 -53.68 63 -53 63 C-53 62.01 -53 61.02 -53 60 C-51.68 60 -50.36 60 -49 60 C-49 58.68 -49 57.36 -49 56 C-48.34 56 -47.68 56 -47 56 C-46.731875 55.360625 -46.46375 54.72125 -46.1875 54.0625 C-45 52 -45 52 -42 51 C-42 50.01 -42 49.02 -42 48 C-41.01 48 -40.02 48 -39 48 C-38.9175 47.2575 -38.835 46.515 -38.75 45.75 C-37.8436597 42.42675224 -36.51637691 41.29434365 -34 39 C-33.46375 38.2575 -32.9275 37.515 -32.375 36.75 C-31.92125 36.1725 -31.4675 35.595 -31 35 C-30.34 35 -29.68 35 -29 35 C-28.34 33.35 -27.68 31.7 -27 30 C-26.34 30 -25.68 30 -25 30 C-25 29.34 -25 28.68 -25 28 C-24.34 28 -23.68 28 -23 28 C-22.731875 27.195625 -22.46375 26.39125 -22.1875 25.5625 C-21.5996875 24.2940625 -21.5996875 24.2940625 -21 23 C-20.01 22.67 -19.02 22.34 -18 22 C-16.78130071 19.49552484 -16.78130071 19.49552484 -16 17 C-15.01 17 -14.02 17 -13 17 C-13 16.01 -13 15.02 -13 14 C-12.34 14 -11.68 14 -11 14 C-10.67 13.01 -10.34 12.02 -10 11 C-8.5625 9.3125 -8.5625 9.3125 -7 8 C-6.34 8 -5.68 8 -5 8 C-4.67 6.68 -4.34 5.36 -4 4 C-2.68 3.67 -1.36 3.34 0 3 C0 2.01 0 1.02 0 0 Z " fill="#FEF6D9" transform="translate(1204,876)"/>
<path d="M0 0 C0.99 0.33 1.98 0.66 3 1 C-3.27877659 8.4074223 -9.60694142 15.74533907 -16.19995117 22.87548828 C-19.27796751 26.204737 -22.28743692 29.58264258 -25.2578125 33.0078125 C-27.31500399 35.36020635 -29.40596915 37.68034966 -31.5 40 C-34.18983431 42.98062721 -36.86310364 45.97245233 -39.5 49 C-43.61082427 53.71702877 -47.8074226 58.35569709 -52 63 C-54.24550935 65.49414706 -56.49016211 67.98906137 -58.734375 70.484375 C-60.28417339 72.20518562 -61.83637251 73.9238363 -63.390625 75.640625 C-67.35358295 80.02349902 -71.26462947 84.42115871 -75 89 C-75.33 88.01 -75.66 87.02 -76 86 C-75.34 85.01 -74.68 84.02 -74 83 C-73.34 83 -72.68 83 -72 83 C-71.34 81.35 -70.68 79.7 -70 78 C-69.34 78 -68.68 78 -68 78 C-68 77.34 -68 76.68 -68 76 C-67.34 76 -66.68 76 -66 76 C-65.34 74.35 -64.68 72.7 -64 71 C-63.01 71 -62.02 71 -61 71 C-61 70.01 -61 69.02 -61 68 C-60.34 68 -59.68 68 -59 68 C-58.896875 67.360625 -58.79375 66.72125 -58.6875 66.0625 C-58.460625 65.381875 -58.23375 64.70125 -58 64 C-56.515 63.505 -56.515 63.505 -55 63 C-54.67 62.34 -54.34 61.68 -54 61 C-53.34 61 -52.68 61 -52 61 C-52 60.01 -52 59.02 -52 58 C-50.125 55.8125 -50.125 55.8125 -48 54 C-47.34 54 -46.68 54 -46 54 C-46 53.01 -46 52.02 -46 51 C-44.56515395 49.79873354 -43.12444498 48.60344069 -41.6484375 47.453125 C-39.40030747 45.47136109 -37.89752962 43.17747127 -36.22265625 40.7109375 C-33.64531397 37.10430518 -31.22142726 34.40714242 -27 33 C-27 32.01 -27 31.02 -27 30 C-25.39430262 28.27451703 -23.71617302 26.61564406 -22 25 C-16.20059241 18.8410859 -10.70909683 12.54087964 -5.59375 5.80078125 C-5.0678125 5.20652344 -4.541875 4.61226562 -4 4 C-3.34 4 -2.68 4 -2 4 C-2 3.01 -2 2.02 -2 1 C-1.34 0.67 -0.68 0.34 0 0 Z " fill="#E0AF56" transform="translate(1245,953)"/>
<path d="M0 0 C0.66 0 1.32 0 2 0 C3.746501 7.24965707 4.27947317 14.06707519 4.22705078 21.50830078 C4.22734283 22.61191452 4.22763489 23.71552826 4.22793579 24.85258484 C4.22655272 28.46690996 4.21103983 32.0810238 4.1953125 35.6953125 C4.19157874 38.21450691 4.18873348 40.73370278 4.18673706 43.25289917 C4.17990505 49.18477431 4.16417418 55.1165827 4.14403808 61.04842365 C4.12159613 67.80788759 4.1106649 74.56735532 4.10064721 81.32684731 C4.07980525 95.21793939 4.0446814 109.10896559 4 123 C4.66 123 5.32 123 6 123 C6 122.34 6 121.68 6 121 C6.99 121.33 7.98 121.66 9 122 C7.38405168 124.04119788 5.7143618 126.04072937 4 128 C3.34 128 2.68 128 2 128 C1.99576806 127.40715304 1.99153612 126.81430609 1.98717594 126.20349407 C1.88359527 111.7373599 1.77491825 97.27127054 1.66066074 82.80521679 C1.60552653 75.80936957 1.55207856 68.81351726 1.50268555 61.81762695 C1.45497952 55.06136293 1.40246154 48.30514971 1.34705925 41.54894447 C1.32673975 38.97629305 1.30801021 36.40362854 1.29092598 33.8309536 C1.26665009 30.21692576 1.23662931 26.60298653 1.20532227 22.98901367 C1.1995668 21.9345253 1.19381134 20.88003693 1.18788147 19.79359436 C1.12282529 13.15043455 0.70405206 6.60598688 0 0 Z " fill="#FEE1C8" transform="translate(1111,856)"/>
<path d="M0 0 C1.61065338 -0.00131424 1.61065338 -0.00131424 3.25384521 -0.00265503 C6.79318692 0.00151585 10.33061943 0.04814843 13.86962891 0.09521484 C16.32727015 0.10640865 18.7849248 0.11494796 21.24258423 0.12094116 C27.70376705 0.14382437 34.16413759 0.20274533 40.625 0.26916504 C47.22075411 0.33059727 53.81663977 0.35795832 60.41259766 0.38818359 C73.34914165 0.4524873 86.28512328 0.55370518 99.22119141 0.68115234 C99.22119141 1.34115234 99.22119141 2.00115234 99.22119141 2.68115234 C98.66773072 2.67616635 98.11427004 2.67118036 97.54403782 2.66604328 C84.04655077 2.54825274 70.55001304 2.4923818 57.05199528 2.50236988 C50.52409916 2.50534537 43.9975811 2.48806444 37.4699707 2.42407227 C31.1670252 2.36303471 24.86607418 2.35575377 18.56292534 2.38532066 C16.1615933 2.38722028 13.76016505 2.3699374 11.35911751 2.3329258 C-1.73400207 1.44547522 -1.73400207 1.44547522 -13.30593872 6.21664429 C-15.56940418 8.9540848 -17.28263767 11.46892032 -18.77880859 14.68115234 C-19.10880859 13.36115234 -19.43880859 12.04115234 -19.77880859 10.68115234 C-19.11880859 10.68115234 -18.45880859 10.68115234 -17.77880859 10.68115234 C-17.6630781 10.08730555 -17.5473476 9.49345875 -17.42811012 8.88161659 C-14.83063046 0.07883255 -7.77744807 -0.1666046 0 0 Z " fill="#FEF9DF" transform="translate(1300.77880859375,776.31884765625)"/>
<path d="M0 0 C0.495 1.485 0.495 1.485 1 3 C-0.8125 6.1875 -0.8125 6.1875 -3 9 C-3.66 9 -4.32 9 -5 9 C-5.66 10.32 -6.32 11.64 -7 13 C-7.66 13 -8.32 13 -9 13 C-9 13.66 -9 14.32 -9 15 C-9.66 15 -10.32 15 -11 15 C-11.10441406 15.57621094 -11.20882813 16.15242187 -11.31640625 16.74609375 C-13.60635228 24.29637294 -21.48085512 30.82635843 -26.6953125 36.46875 C-28.54148855 38.49641455 -30.29199401 40.5449126 -32 42.6875 C-32.66 43.450625 -33.32 44.21375 -34 45 C-34.66 45 -35.32 45 -36 45 C-36.33 45.99 -36.66 46.98 -37 48 C-37.99 48.495 -37.99 48.495 -39 49 C-39.28875 49.61875 -39.5775 50.2375 -39.875 50.875 C-41.19480413 53.36796335 -42.67721672 54.45147781 -45 56 C-45.66 55.67 -46.32 55.34 -47 55 C-46.26136719 54.14019531 -45.52273438 53.28039062 -44.76171875 52.39453125 C-39.6551427 46.4459134 -34.55744759 40.49047386 -29.5 34.5 C-25.19280686 29.3983742 -20.85497874 24.32389443 -16.50463867 19.2590332 C-12.44208389 14.52547591 -8.40856241 9.76787583 -4.38867188 4.99804688 C-1.10099546 1.10099546 -1.10099546 1.10099546 0 0 Z " fill="#E3B257" transform="translate(1189,897)"/>
<path d="M0 0 C5.68546942 2.93419979 9.94674751 6.40045109 14.4375 10.9375 C15.09492187 11.60136719 15.75234375 12.26523437 16.4296875 12.94921875 C22.07239618 18.80422736 26.25737767 24.74652323 30 32 C30.30873047 32.58217285 30.61746094 33.1643457 30.93554688 33.76416016 C37.07987082 45.45910803 41.36987169 57.64023454 41 71 C40.67 71 40.34 71 40 71 C39.82984375 70.02160156 39.6596875 69.04320312 39.484375 68.03515625 C38.2752281 61.382724 37.05051387 55.20103743 34.02734375 49.09765625 C32.91004526 46.81632816 32.02124992 44.50136389 31.125 42.125 C29.24831669 37.34392584 26.84027054 32.96847407 24.328125 28.49609375 C22.86380568 25.7440348 21.81340787 23.00960912 21 20 C20.01 20 19.02 20 18 20 C16.61096733 18.37946188 15.28667172 16.70294787 14 15 C11.66167232 12.54475594 9.42702327 10.31161157 6.6875 8.3125 C6.130625 7.879375 5.57375 7.44625 5 7 C5 6.34 5 5.68 5 5 C2.525 4.01 2.525 4.01 0 3 C0 2.01 0 1.02 0 0 Z " fill="#D57D4D" transform="translate(1071,796)"/>
<path d="M0 0 C0.495 1.485 0.495 1.485 1 3 C0.24074219 3.79664063 -0.51851562 4.59328125 -1.30078125 5.4140625 C-2.3050519 6.4840331 -3.30893779 7.55436491 -4.3125 8.625 C-4.81201172 9.14707031 -5.31152344 9.66914062 -5.82617188 10.20703125 C-8.9831919 13.59403287 -10.98287232 16.79431736 -13 21 C-14.796875 23.2734375 -14.796875 23.2734375 -16.75 25.375 C-19.45073353 28.3135963 -22.10079967 31.2729856 -24.6875 34.3125 C-26.64179153 36.5650547 -28.39807189 38.31664809 -30.75 40.1875 C-33.11492239 41.87019527 -33.11492239 41.87019527 -34.375 44.375 C-36.6244893 48.00879041 -39.68380381 50.35612851 -43 53 C-43.66 52.67 -44.32 52.34 -45 52 C-36.70490907 42.29997475 -28.37235761 32.63341609 -20 23 C-19.32066406 22.21753906 -18.64132812 21.43507813 -17.94140625 20.62890625 C-14.05392281 16.16682941 -10.09521323 11.77253462 -6.11328125 7.39453125 C-3.99127508 4.99011391 -1.98279012 2.51988903 0 0 Z " fill="#E3B35C" transform="translate(1279,793)"/>
<path d="M0 0 C0.99 0.33 1.98 0.66 3 1 C2.28714844 1.7734375 1.57429688 2.546875 0.83984375 3.34375 C-3.89767735 8.49258048 -8.60785169 13.65438048 -13.19140625 18.94140625 C-16.20356354 22.36993085 -19.29308764 25.72797729 -22.375 29.09375 C-24.38701034 31.32133288 -26.36772324 33.56628333 -28.3359375 35.83203125 C-32.00701887 40.03876851 -35.79774471 44.122986 -39.625 48.1875 C-40.58792969 49.21520508 -40.58792969 49.21520508 -41.5703125 50.26367188 C-44.98961939 53.90369222 -48.44482344 57.49249822 -52 61 C-51.875 58.25 -51.875 58.25 -51 55 C-48.0625 52.875 -48.0625 52.875 -45 51 C-43.90833725 49.06669397 -43.90833725 49.06669397 -43 47 C-41.3777546 45.29006566 -39.70586575 43.62652316 -38 42 C-30.66323517 35.15572275 -30.66323517 35.15572275 -25 27 C-24.34 27 -23.68 27 -23 27 C-23 26.34 -23 25.68 -23 25 C-22.34 25 -21.68 25 -21 25 C-20.95875 24.443125 -20.9175 23.88625 -20.875 23.3125 C-19.55598589 19.82653414 -16.86969787 18.28404524 -14 16 C-13.34 15.01 -12.68 14.02 -12 13 C-11.34 13 -10.68 13 -10 13 C-9.34 11.68 -8.68 10.36 -8 9 C-7.34 9 -6.68 9 -6 9 C-5.9071875 8.1646875 -5.9071875 8.1646875 -5.8125 7.3125 C-4.66626128 4.05012827 -2.50609803 2.31332126 0 0 Z " fill="#E1AF56" transform="translate(1166,1042)"/>
<path d="M0 0 C0.99 0.33 1.98 0.66 3 1 C2.28714844 1.7734375 1.57429688 2.546875 0.83984375 3.34375 C-3.92177634 8.51869939 -8.6616598 13.70304762 -13.265625 19.01953125 C-15.27264538 21.31133155 -17.32402851 23.55996752 -19.375 25.8125 C-22.46636801 29.23229328 -25.42459032 32.71958524 -28.3125 36.3125 C-34.74677606 44.26472147 -41.71530137 51.8191213 -49 59 C-48.47178451 54.96443369 -47.40673398 52.82287252 -44.6875 49.8125 C-43.79611328 48.80123047 -43.79611328 48.80123047 -42.88671875 47.76953125 C-41.00639654 46.00599924 -39.28977207 45.12765119 -37 44 C-36.19471111 41.94999129 -36.19471111 41.94999129 -36 40 C-35.34 40 -34.68 40 -34 40 C-33.67 38.68 -33.34 37.36 -33 36 C-32.34 36 -31.68 36 -31 36 C-31 35.34 -31 34.68 -31 34 C-29.3563186 32.31066078 -27.6857124 30.64740076 -26 29 C-25.278125 28.071875 -24.55625 27.14375 -23.8125 26.1875 C-23.214375 25.465625 -22.61625 24.74375 -22 24 C-21.34 24 -20.68 24 -20 24 C-20 23.34 -20 22.68 -20 22 C-19.34 22 -18.68 22 -18 22 C-18 21.01 -18 20.02 -18 19 C-16.36395804 17.62926214 -14.69321939 16.29944744 -13 15 C-12.443125 14.2575 -11.88625 13.515 -11.3125 12.75 C-10.879375 12.1725 -10.44625 11.595 -10 11 C-9.34 11 -8.68 11 -8 11 C-7.773125 10.278125 -7.54625 9.55625 -7.3125 8.8125 C-5.74730392 5.45850839 -3.70307284 3.49514416 -1 1 C-0.67 0.67 -0.34 0.34 0 0 Z " fill="#E0AE55" transform="translate(1357,825)"/>
<path d="M0 0 C0.99 0 1.98 0 3 0 C2.41980951 3.77123816 0.82652121 5.61981491 -1.75 8.375 C-2.55695313 9.24640625 -3.36390625 10.1178125 -4.1953125 11.015625 C-5.13011826 12.01050131 -6.06502026 13.00528719 -7 14 C-8.64350096 15.76400411 -10.28470067 17.53013091 -11.92578125 19.29638672 C-13.06044995 20.51745979 -14.19586949 21.73783558 -15.33203125 22.95751953 C-18.72971422 26.61002872 -22.06810722 30.30166877 -25.328125 34.078125 C-27.35758073 36.41105074 -29.427647 38.70511245 -31.5 41 C-35.37699282 45.29594745 -39.20502898 49.63151246 -43 54 C-43.6328125 52.15234375 -43.6328125 52.15234375 -44 50 C-41.875 47.5625 -41.875 47.5625 -39 45 C-34.79748719 41.02465005 -31.30196462 36.67519709 -27.76953125 32.109375 C-26 30 -26 30 -24 29 C-23.67 28.01 -23.34 27.02 -23 26 C-18.68181818 21.22727273 -18.68181818 21.22727273 -15 20 C-14.566875 18.88625 -14.566875 18.88625 -14.125 17.75 C-12.71761642 14.30972904 -10.70857485 12.51038645 -8 10 C-7.46375 9.401875 -6.9275 8.80375 -6.375 8.1875 C-5 7 -5 7 -2 7 C-2 6.01 -2 5.02 -2 4 C-1.34 4 -0.68 4 0 4 C0 2.68 0 1.36 0 0 Z " fill="#D87742" transform="translate(1111,1101)"/>
<path d="M0 0 C0.99 0.33 1.98 0.66 3 1 C-8.36838287 14.34967464 -8.36838287 14.34967464 -13.6875 20.1875 C-17.53289203 24.42089555 -21.13790017 28.81642556 -24.734375 33.26171875 C-27.71147152 36.85989919 -30.83653507 40.30944832 -33.98046875 43.76171875 C-36.40252147 46.44612148 -38.71482508 49.19881784 -41 52 C-41.33 50.68 -41.66 49.36 -42 48 C-41.01 48 -40.02 48 -39 48 C-38.896875 47.401875 -38.79375 46.80375 -38.6875 46.1875 C-37.90175967 43.68741714 -37.03081147 42.62464918 -35 41 C-34.34 41 -33.68 41 -33 41 C-32.85884766 40.14148438 -32.85884766 40.14148438 -32.71484375 39.265625 C-31.83488251 36.47667681 -30.50184848 34.92723114 -28.5625 32.75 C-27.94503906 32.04359375 -27.32757812 31.3371875 -26.69140625 30.609375 C-25 29 -25 29 -23 29 C-22.938125 28.46375 -22.87625 27.9275 -22.8125 27.375 C-20.83161373 21.58471706 -15.17158476 17.0474942 -10.8125 12.9375 C-8.77977645 11.03460878 -8.77977645 11.03460878 -8 8 C-7.34 8 -6.68 8 -6 8 C-5.67 7.01 -5.34 6.02 -5 5 C-4.34 5 -3.68 5 -3 5 C-2.67 4.01 -2.34 3.02 -2 2 C-1.34 2 -0.68 2 0 2 C0 1.34 0 0.68 0 0 Z " fill="#E0AF56" transform="translate(1305,884)"/>
<path d="M0 0 C9.89180583 1.23647573 18.96332474 3.79689523 28 8 C28 8.33 28 8.66 28 9 C24.02161673 9.39783833 22.05190104 9.02640579 18.4375 7.1875 C12.80900288 4.20223413 12.80900288 4.20223413 1 2 C1 32.36 1 62.72 1 94 C0.67 94 0.34 94 0 94 C0 62.98 0 31.96 0 0 Z " fill="#CD7B50" transform="translate(1031,780)"/>
<path d="M0 0 C1 2 1 2 0 5.1875 C-1.70707391 8.9430626 -4.12089284 11.37747323 -7.1015625 14.17578125 C-9.07131537 16.06852732 -10.84509278 18.05362325 -12.625 20.125 C-20.03127843 28.67709281 -20.03127843 28.67709281 -24 30 C-24.28875 30.78375 -24.5775 31.5675 -24.875 32.375 C-26.29265602 35.68286406 -27.764271 36.54392195 -31 38 C-31.66 37.67 -32.32 37.34 -33 37 C-32.37339478 36.33581055 -32.37339478 36.33581055 -31.73413086 35.65820312 C-29.80044849 33.60685083 -27.86896851 31.55343683 -25.9375 29.5 C-25.28072266 28.80390625 -24.62394531 28.1078125 -23.94726562 27.390625 C-20.07400704 23.26932523 -16.28997752 19.08810107 -12.58276367 14.81689453 C-9.7480402 11.56284361 -6.82604366 8.38759004 -3.91796875 5.19921875 C-1.87480508 2.95177481 -1.87480508 2.95177481 0 0 Z " fill="#FDF5D9" transform="translate(1217,988)"/>
<path d="M0 0 C0.495 1.485 0.495 1.485 1 3 C-0.59067038 5.94174188 -2.86715748 8.433509 -5 11 C-5.99386719 12.21429687 -5.99386719 12.21429687 -7.0078125 13.453125 C-12.33815519 19.73603843 -12.33815519 19.73603843 -15.6640625 21.0625 C-16.43492188 21.371875 -17.20578125 21.68125 -18 22 C-19.37189827 25.02982306 -19.37189827 25.02982306 -20 28 C-20.99 28 -21.98 28 -23 28 C-23.2475 28.9075 -23.495 29.815 -23.75 30.75 C-25.03981342 34.10351489 -26.31971042 35.67708236 -29 38 C-29.99 37.67 -30.98 37.34 -32 37 C-26.69746111 30.37823042 -21.23933482 24.01684793 -15.4921875 17.77734375 C-12.19058569 14.09797246 -9.09123204 10.27296412 -6.0078125 6.41015625 C-4.11281147 4.13541766 -2.12773666 2.05617601 0 0 Z " fill="#FDF2D1" transform="translate(1330,859)"/>
<path d="M0 0 C0.99 0 1.98 0 3 0 C1.38382876 3.92365271 -1.31352131 6.71367957 -4.1875 9.75 C-5.18940659 10.82626049 -6.19070944 11.90308333 -7.19140625 12.98046875 C-7.9186792 13.76043213 -7.9186792 13.76043213 -8.66064453 14.55615234 C-14.74406512 21.11418175 -20.3692081 28.05407983 -26 35 C-26.58203125 33.140625 -26.58203125 33.140625 -27 31 C-25.6875 28.75 -25.6875 28.75 -24 27 C-23.34 27 -22.68 27 -22 27 C-22 26.34 -22 25.68 -22 25 C-21.34 25 -20.68 25 -20 25 C-19.71125 24.401875 -19.4225 23.80375 -19.125 23.1875 C-18 21 -18 21 -16 18 C-15.34 18 -14.68 18 -14 18 C-13.7525 17.443125 -13.505 16.88625 -13.25 16.3125 C-11.77075182 13.57589087 -10.06532561 11.32349131 -8 9 C-7.34 9 -6.68 9 -6 9 C-6 8.34 -6 7.68 -6 7 C-5.34 7 -4.68 7 -4 7 C-3.67 5.68 -3.34 4.36 -3 3 C-2.34 3 -1.68 3 -1 3 C-0.67 2.01 -0.34 1.02 0 0 Z " fill="#E0AF56" transform="translate(1387,790)"/>
<path d="M0 0 C0.99 0.33 1.98 0.66 3 1 C-1.49529827 6.63696132 -5.96948548 12.1097162 -11.171875 17.10546875 C-14.35842364 20.40776809 -17.14405226 24.04447183 -19.984375 27.64453125 C-22 30 -22 30 -25 32 C-25 30.68 -25 29.36 -25 28 C-24.34 28 -23.68 28 -23 28 C-22.731875 27.360625 -22.46375 26.72125 -22.1875 26.0625 C-21 24 -21 24 -18 23 C-18 22.01 -18 21.02 -18 20 C-17.34 20 -16.68 20 -16 20 C-15.773125 19.2575 -15.54625 18.515 -15.3125 17.75 C-13.7410439 14.4574253 -12.00004284 13.02502891 -9 11 C-8.34 11 -7.68 11 -7 11 C-7 10.01 -7 9.02 -7 8 C-6.34 8 -5.68 8 -5 8 C-5 7.01 -5 6.02 -5 5 C-4.34 5 -3.68 5 -3 5 C-3 4.34 -3 3.68 -3 3 C-2.34 3 -1.68 3 -1 3 C-0.67 2.01 -0.34 1.02 0 0 Z " fill="#FEF6D9" transform="translate(1274,795)"/>
<path d="M0 0 C1 2 1 2 0.37109375 4.3046875 C-1.28490836 7.56007627 -3.30663651 9.59844387 -5.9375 12.125 C-6.81277344 12.97320313 -7.68804688 13.82140625 -8.58984375 14.6953125 C-9.78287109 15.83613281 -9.78287109 15.83613281 -11 17 C-12.88992042 18.86763362 -14.72804707 20.76356156 -16.5625 22.6875 C-19 25 -19 25 -21 25 C-21 25.66 -21 26.32 -21 27 C-21.66 26.67 -22.32 26.34 -23 26 C-18.46400503 20.31200631 -13.94604184 14.75809541 -8.70703125 9.703125 C-5.62697222 6.63011416 -2.82520731 3.30609366 0 0 Z " fill="#FDF5DB" transform="translate(1354,832)"/>
<path d="M0 0 C0.33 0.99 0.66 1.98 1 3 C-0.26438322 4.71956118 -1.61973133 6.3719908 -3 8 C-3.94904854 9.45084432 -4.88560297 10.90990469 -5.8125 12.375 C-9.53231952 18.00652423 -13.23705442 23.40122835 -20 25 C-21.28436734 26.9837767 -21.28436734 26.9837767 -22 29 C-22.66 28.67 -23.32 28.34 -24 28 C-23.443125 27.39414062 -22.88625 26.78828125 -22.3125 26.1640625 C-17.65455051 21.04975985 -13.21057658 15.8390249 -8.9296875 10.40625 C-6.0670181 6.83660557 -3.04884454 3.41089482 0 0 Z " fill="#E3B054" transform="translate(1220,861)"/>
<path d="M0 0 C3.3 0 6.6 0 10 0 C10.33 0.33 10.66 0.66 11 1 C12.51469448 1.23192865 14.03754562 1.41215238 15.5625 1.5625 C16.38878906 1.64628906 17.21507812 1.73007812 18.06640625 1.81640625 C18.70449219 1.87699219 19.34257813 1.93757812 20 2 C20 2.66 20 3.32 20 4 C20.99 4.33 21.98 4.66 23 5 C19.84512478 6.57743761 17.54655764 5.13344063 14.25 4.125 C9.76358944 2.75998572 5.6585881 1.77643135 1 1 C1 17.5 1 34 1 51 C0.67 51 0.34 51 0 51 C0 34.17 0 17.34 0 0 Z " fill="#FEF1E2" transform="translate(1029,779)"/>
<path d="M0 0 C0.99 0.33 1.98 0.66 3 1 C2.43410156 1.48975815 1.86820313 1.9795163 1.28515625 2.4841156 C-4.45985705 8.05247636 -5.92828654 12.07748737 -6.05883789 20.01515198 C-6.03942139 21.25925339 -6.02000488 22.5033548 -6 23.78515625 C-6.01087646 25.08198837 -6.02175293 26.3788205 -6.03295898 27.71495056 C-6.06118676 31.13333565 -6.04224466 34.54982903 -6.01287842 37.96813965 C-5.9913586 41.4678124 -6.0152701 44.96715782 -6.03515625 48.46679688 C-6.0674566 55.31154506 -6.04984082 62.15536964 -6 69 C-6.33 69 -6.66 69 -7 69 C-7.04632389 61.09841497 -7.0818694 53.19688661 -7.10362434 45.29519939 C-7.1140652 41.62619419 -7.1282298 37.95728184 -7.15087891 34.28833008 C-7.17259669 30.74812214 -7.18456636 27.20800356 -7.18975449 23.66773415 C-7.19525273 21.65856095 -7.21086735 19.64942374 -7.22659302 17.64030457 C-7.22674408 16.41926529 -7.22689514 15.19822601 -7.22705078 13.94018555 C-7.231492 12.86318893 -7.23593323 11.78619232 -7.24050903 10.67655945 C-7 8 -7 8 -5 5 C-4.34 5 -3.68 5 -3 5 C-2.690625 4.360625 -2.38125 3.72125 -2.0625 3.0625 C-1 1 -1 1 0 0 Z " fill="#E6FEFF" transform="translate(1036,1207)"/>
<path d="M0 0 C0.33 0.66 0.66 1.32 1 2 C-1.73950136 9.09779897 -6.17054989 14.13837366 -12 19 C-12.66 19 -13.32 19 -14 19 C-14.12375 19.61875 -14.2475 20.2375 -14.375 20.875 C-15 23 -15 23 -17 25 C-17.99 24.67 -18.98 24.34 -20 24 C-14.78842306 17.51941023 -9.48057549 11.21346473 -3.84765625 5.09375 C-1.86054661 2.93666737 -1.86054661 2.93666737 0 0 Z " fill="#FDF3D3" transform="translate(1287,908)"/>
<path d="M0 0 C0.33 0.99 0.66 1.98 1 3 C0.25556641 3.72703125 0.25556641 3.72703125 -0.50390625 4.46875 C-5.23370741 9.13572647 -9.6757617 13.95828719 -14 19 C-15.31104343 20.50127326 -16.62350626 22.00130834 -17.9375 23.5 C-18.52402344 24.1703125 -19.11054687 24.840625 -19.71484375 25.53125 C-20.35099609 26.25828125 -20.35099609 26.25828125 -21 27 C-21.33 25.68 -21.66 24.36 -22 23 C-20.7934375 22.1028125 -20.7934375 22.1028125 -19.5625 21.1875 C-16.77672016 19.19052724 -16.77672016 19.19052724 -16 16 C-15.01 16 -14.02 16 -13 16 C-12.90589844 15.42765625 -12.81179688 14.8553125 -12.71484375 14.265625 C-11.83488251 11.47667681 -10.50184848 9.92723114 -8.5625 7.75 C-7.94503906 7.04359375 -7.32757812 6.3371875 -6.69140625 5.609375 C-5 4 -5 4 -3 4 C-3 3.34 -3 2.68 -3 2 C-2.01 1.34 -1.02 0.68 0 0 Z " fill="#DCF7F7" transform="translate(1104,1133)"/>
<path d="M0 0 C0.99 0 1.98 0 3 0 C1.54891844 3.27045794 -0.27697957 5.61689713 -2.6875 8.25 C-3.39261719 9.02730469 -4.09773438 9.80460938 -4.82421875 10.60546875 C-5.54222656 11.39566406 -6.26023437 12.18585937 -7 13 C-8.33700149 14.51760957 -9.67063458 16.03819708 -11 17.5625 C-11.86625 18.55443359 -11.86625 18.55443359 -12.75 19.56640625 C-13.1625 20.03949219 -13.575 20.51257813 -14 21 C-14.67578125 19.234375 -14.67578125 19.234375 -15 17 C-13.85546875 15.078125 -13.85546875 15.078125 -12.1875 13.25 C-11.64480469 12.63640625 -11.10210938 12.0228125 -10.54296875 11.390625 C-9 10 -9 10 -7 10 C-6.938125 9.4225 -6.87625 8.845 -6.8125 8.25 C-5.6812921 5.11742429 -3.62052199 3.96539149 -1 2 C-0.67 1.34 -0.34 0.68 0 0 Z " fill="#FEF6DB" transform="translate(1246,827)"/>
<path d="M0 0 C0.33 0 0.66 0 1 0 C2.39979944 6.97825943 1.88528511 13.8621987 1.5625 20.9375 C1.51029297 22.19369141 1.45808594 23.44988281 1.40429688 24.74414062 C1.27524235 27.82971701 1.1403033 30.91491805 1 34 C0.34 34 -0.32 34 -1 34 C-1.02465288 29.31860746 -1.04283739 24.63725241 -1.05493164 19.95581055 C-1.05997157 18.36205386 -1.0668035 16.76830181 -1.07543945 15.17456055 C-1.08751999 12.88849747 -1.09323155 10.60249533 -1.09765625 8.31640625 C-1.10281754 7.59973282 -1.10797882 6.88305939 -1.11329651 6.14466858 C-1.11349263 4.42936328 -1.06192007 2.71418734 -1 1 C-0.67 0.67 -0.34 0.34 0 0 Z " fill="#0F3849" transform="translate(1114,1125)"/>
<path d="M0 0 C0.33 0.66 0.66 1.32 1 2 C-0.20866842 5.40624736 -1.96222489 7.10139056 -5 9 C-5.66 9 -6.32 9 -7 9 C-7.33 10.65 -7.66 12.3 -8 14 C-9.32 14.33 -10.64 14.66 -12 15 C-12.12375 15.78375 -12.2475 16.5675 -12.375 17.375 C-13 20 -13 20 -15 22 C-16.32 22 -17.64 22 -19 22 C-17.58261511 18.74792908 -15.87473588 16.68638933 -13.3125 14.25 C-9.83243503 10.86501877 -6.60262588 7.3500423 -3.4453125 3.6640625 C-2.34597202 2.39833536 -1.1854566 1.1854566 0 0 Z " fill="#FCF0CC" transform="translate(1136,1079)"/>
<path d="M0 0 C0.99 0.33 1.98 0.66 3 1 C-2.79428085 8.20518139 -8.74795407 15.18630455 -15 22 C-15.66 20.68 -16.32 19.36 -17 18 C-15.68 17.67 -14.36 17.34 -13 17 C-13 16.01 -13 15.02 -13 14 C-12.34 14 -11.68 14 -11 14 C-10.67 13.01 -10.34 12.02 -10 11 C-8.5625 9.3125 -8.5625 9.3125 -7 8 C-6.34 8 -5.68 8 -5 8 C-4.67 6.68 -4.34 5.36 -4 4 C-2.68 3.67 -1.36 3.34 0 3 C0 2.01 0 1.02 0 0 Z " fill="#FDF4D3" transform="translate(1204,876)"/>
<path d="M0 0 C5.513026 2.85834597 9.60353155 6.13896619 13.9375 10.5625 C14.52595703 11.13935547 15.11441406 11.71621094 15.72070312 12.31054688 C20 16.61966463 20 16.61966463 20 20 C19.34 20 18.68 20 18 20 C16.63823078 18.35648543 15.31037934 16.68477344 14 15 C11.66167232 12.54475594 9.42702327 10.31161157 6.6875 8.3125 C6.130625 7.879375 5.57375 7.44625 5 7 C5 6.34 5 5.68 5 5 C2.525 4.01 2.525 4.01 0 3 C0 2.01 0 1.02 0 0 Z " fill="#D77A47" transform="translate(1071,796)"/>
<path d="M0 0 C0.33 0.99 0.66 1.98 1 3 C0.51789063 3.47050781 0.03578125 3.94101563 -0.4609375 4.42578125 C-1.09257813 5.04839844 -1.72421875 5.67101563 -2.375 6.3125 C-3.00148438 6.92738281 -3.62796875 7.54226563 -4.2734375 8.17578125 C-6.18086607 10.08812528 -6.18086607 10.08812528 -8 13 C-8.66 13 -9.32 13 -10 13 C-10.3403125 14.175625 -10.3403125 14.175625 -10.6875 15.375 C-12 18 -12 18 -14.625 19.3125 C-15.800625 19.6528125 -15.800625 19.6528125 -17 20 C-17 20.66 -17 21.32 -17 22 C-17.66 21.67 -18.32 21.34 -19 21 C-6.53191489 6.53191489 -6.53191489 6.53191489 0 0 Z " fill="#FCE3D0" transform="translate(1063,1160)"/>
<path d="M0 0 C0.33 0.99 0.66 1.98 1 3 C-0.109375 5.0078125 -0.109375 5.0078125 -1.75 7.125 C-2.28109375 7.82882812 -2.8121875 8.53265625 -3.359375 9.2578125 C-5 11 -5 11 -8 12 C-9.36892281 13.99116046 -10.47171693 16.06323921 -11.62109375 18.1875 C-13.28184981 20.37047681 -14.33409919 20.63775446 -17 21 C-14.78782735 16.99633015 -12.18050294 13.83837308 -9.0625 10.5 C-5.89326135 7.09653406 -2.86265643 3.66632564 0 0 Z " fill="#FDF3D1" transform="translate(1256,944)"/>
<path d="M0 0 C0.33 0.99 0.66 1.98 1 3 C-0.29296875 5.12109375 -0.29296875 5.12109375 -2.1875 7.4375 C-2.79980469 8.19933594 -3.41210938 8.96117187 -4.04296875 9.74609375 C-5.95904616 11.95283361 -7.80439468 14.06839532 -10 16 C-10.99 16 -11.98 16 -13 16 C-13.33 16.99 -13.66 17.98 -14 19 C-14.66 18.67 -15.32 18.34 -16 18 C-15.43152344 17.3709375 -14.86304688 16.741875 -14.27734375 16.09375 C-9.4728318 10.76788032 -4.70399152 5.41488413 0 0 Z " fill="#FCE4D0" transform="translate(1087,1133)"/>
<path d="M0 0 C0.33 0.99 0.66 1.98 1 3 C-0.109375 4.6484375 -0.109375 4.6484375 -1.75 6.375 C-3.63192097 8.42917918 -5.06641983 10.11840057 -6.4375 12.5625 C-8.68724888 16.07210826 -11.76235983 18.41875811 -15 21 C-15.66 20.67 -16.32 20.34 -17 20 C-16.19175781 19.05898438 -15.38351562 18.11796875 -14.55078125 17.1484375 C-13.47133178 15.89064421 -12.39190596 14.63283063 -11.3125 13.375 C-10.78205078 12.75753906 -10.25160156 12.14007812 -9.70507812 11.50390625 C-6.43774572 7.69535927 -3.20310202 3.86273898 0 0 Z " fill="#FCF1D2" transform="translate(1377,805)"/>
<path d="M0 0 C0.99 0.33 1.98 0.66 3 1 C0.77234548 3.39724312 -1.45739721 5.79253447 -3.6875 8.1875 C-4.31333984 8.86103516 -4.93917969 9.53457031 -5.58398438 10.22851562 C-8.99307167 13.88748366 -12.43653989 17.49104788 -16 21 C-16.33 20.01 -16.66 19.02 -17 18 C-16.278125 17.484375 -15.55625 16.96875 -14.8125 16.4375 C-11.94993136 13.95660718 -10.20077424 11.56902194 -8.2109375 8.390625 C-7.81132813 7.93171875 -7.41171875 7.4728125 -7 7 C-6.01 7 -5.02 7 -4 7 C-3.896875 6.401875 -3.79375 5.80375 -3.6875 5.1875 C-2.91123545 2.71756736 -1.92911079 1.67748765 0 0 Z " fill="#DCF8F8" transform="translate(1079,1160)"/>
<path d="M0 0 C0.33 0.99 0.66 1.98 1 3 C-0.3125 5.1875 -0.3125 5.1875 -2 7 C-2.66 7 -3.32 7 -4 7 C-4.061875 7.5775 -4.12375 8.155 -4.1875 8.75 C-5.32633196 11.9036885 -7.36321136 12.96248151 -10 15 C-10.9193705 16.06343141 -11.81534563 17.14751407 -12.6875 18.25 C-13.450625 19.1575 -14.21375 20.065 -15 21 C-15.66 21 -16.32 21 -17 21 C-15.67931008 18.09614491 -14.23006869 15.95682261 -12.03125 13.65234375 C-11.46019531 13.04712891 -10.88914062 12.44191406 -10.30078125 11.81835938 C-9.70652344 11.19767578 -9.11226562 10.57699219 -8.5 9.9375 C-7.32101817 8.69841823 -6.14386127 7.45759686 -4.96875 6.21484375 C-4.18661133 5.39681274 -4.18661133 5.39681274 -3.38867188 4.56225586 C-1.79400866 2.84072536 -1.79400866 2.84072536 0 0 Z " fill="#30787F" transform="translate(1077,1165)"/>
<path d="M0 0 C0.33 0.99 0.66 1.98 1 3 C-2.02155998 8.90577633 -6.98755003 12.78011691 -12 17 C-12.66 16.67 -13.32 16.34 -14 16 C-11.85478186 13.52030041 -9.70872226 11.04133053 -7.5625 8.5625 C-6.95083984 7.85544922 -6.33917969 7.14839844 -5.70898438 6.41992188 C-5.12568359 5.74638672 -4.54238281 5.07285156 -3.94140625 4.37890625 C-3.13231812 3.44413452 -3.13231812 3.44413452 -2.30688477 2.49047852 C-1.5608583 1.63964878 -0.80014584 0.80014584 0 0 Z " fill="#FCEEC6" transform="translate(1151,1062)"/>
<path d="M0 0 C0.99 0.33 1.98 0.66 3 1 C2.443125 1.61746094 1.88625 2.23492188 1.3125 2.87109375 C-3.81430772 8.5608111 -8.91951744 14.26888344 -14 20 C-14.33 19.01 -14.66 18.02 -15 17 C-13.68 16.34 -12.36 15.68 -11 15 C-11 14.01 -11 13.02 -11 12 C-10.34 12 -9.68 12 -9 12 C-9 11.34 -9 10.68 -9 10 C-8.34 10 -7.68 10 -7 10 C-6.773125 9.278125 -6.54625 8.55625 -6.3125 7.8125 C-4.75168987 4.46790687 -2.6968713 2.48396041 0 0 Z " fill="#D37947" transform="translate(1064,1155)"/>
<path d="M0 0 C0.33 0 0.66 0 1 0 C1.32389824 3.14565576 1.31564048 4.56530902 -0.57421875 7.16796875 C-1.27160156 7.83441406 -1.96898437 8.50085938 -2.6875 9.1875 C-3.37199219 9.86167969 -4.05648438 10.53585937 -4.76171875 11.23046875 C-7.09432479 13.07457091 -9.19899459 14.04343948 -12 15 C-9.83895456 11.13103156 -7.35445348 7.96295782 -4.375 4.6875 C-3.57835937 3.80449219 -2.78171875 2.92148437 -1.9609375 2.01171875 C-1.31382813 1.34785156 -0.66671875 0.68398438 0 0 Z " fill="#E4B151" transform="translate(1127,969)"/>
<path d="M0 0 C0.33 0 0.66 0 1 0 C1.33 10.89 1.66 21.78 2 33 C1.01 33.495 1.01 33.495 0 34 C-0.33 24.43 -0.66 14.86 -1 5 C-2.32 5.33 -3.64 5.66 -5 6 C-3.35830472 3.97945196 -1.69088222 1.97956942 0 0 Z " fill="#2C727C" transform="translate(1112,1127)"/>
<path d="M0 0 C0.6953125 1.73828125 0.6953125 1.73828125 1 4 C-0.2578125 6.10546875 -0.2578125 6.10546875 -2.125 8.1875 C-2.72570313 8.88230469 -3.32640625 9.57710937 -3.9453125 10.29296875 C-6.31091539 12.25830804 -7.97995963 12.64992612 -11 13 C-7.61227103 8.30840284 -4.21814817 3.9700218 0 0 Z " fill="#FDF6DE" transform="translate(1229,975)"/>
<path d="M0 0 C0.99 0.33 1.98 0.66 3 1 C1.43910887 2.7306191 -0.12378912 4.45942827 -1.6875 6.1875 C-2.55761719 7.15042969 -3.42773438 8.11335937 -4.32421875 9.10546875 C-6.82427741 11.80991176 -9.37781072 14.41560804 -12 17 C-11.67 15.35 -11.34 13.7 -11 12 C-10.01 11.67 -9.02 11.34 -8 11 C-8 10.01 -8 9.02 -8 8 C-6.6875 6.3125 -6.6875 6.3125 -5 5 C-4.01 5 -3.02 5 -2 5 C-1.855625 4.360625 -1.71125 3.72125 -1.5625 3.0625 C-1 1 -1 1 0 0 Z " fill="#FEF6D5" transform="translate(1132,960)"/>
<path d="M0 0 C0.99 0.33 1.98 0.66 3 1 C2.40832031 1.65226563 1.81664062 2.30453125 1.20703125 2.9765625 C-2.95518632 7.58012451 -7.07669156 12.1907832 -11 17 C-11.33 16.01 -11.66 15.02 -12 14 C-11.360625 13.401875 -10.72125 12.80375 -10.0625 12.1875 C-7.79689611 10.09189663 -7.79689611 10.09189663 -7 7 C-6.34 6.67 -5.68 6.34 -5 6 C-4.67 5.01 -4.34 4.02 -4 3 C-2.125 1.25 -2.125 1.25 0 0 Z " fill="#DFAF56" transform="translate(1260,936)"/>
<path d="M0 0 C0.33 0.99 0.66 1.98 1 3 C-0.07421875 4.90234375 -0.07421875 4.90234375 -1.6875 6.9375 C-2.24050781 7.63746094 -2.79351563 8.33742188 -3.36328125 9.05859375 C-5.13675359 11.1622113 -6.97768931 13.13325167 -9 15 C-9.99 14.67 -10.98 14.34 -12 14 C-11.38511719 13.32453125 -10.77023437 12.6490625 -10.13671875 11.953125 C-9.32847656 11.06109375 -8.52023437 10.1690625 -7.6875 9.25 C-6.88699219 8.36828125 -6.08648438 7.4865625 -5.26171875 6.578125 C-3.39083089 4.44550672 -1.65915714 2.29812057 0 0 Z " fill="#2D7A81" transform="translate(1106,1133)"/>
<path d="M0 0 C4.53180302 6.79770453 5.47277312 15.96285696 5 24 C4.67 24 4.34 24 4 24 C3.72736328 22.48019531 3.72736328 22.48019531 3.44921875 20.9296875 C3.19578418 19.57803647 2.94185135 18.22647881 2.6875 16.875 C2.51057617 15.87726562 2.51057617 15.87726562 2.33007812 14.859375 C1.48880186 10.458853 0.00992705 6.97270039 -2 3 C-1 1 -1 1 0 0 Z " fill="#D7875A" transform="translate(1107,843)"/>
<path d="M0 0 C1 3 1 3 0 5.3125 C-2.57725066 8.77568057 -5.63853487 11.32003739 -9 14 C-9.66 13.67 -10.32 13.34 -11 13 C-7.37 8.71 -3.74 4.42 0 0 Z " fill="#E2B35D" transform="translate(1245,832)"/>
<path d="M0 0 C0.33 0.99 0.66 1.98 1 3 C-2.33059715 7.86779584 -6.44236129 12.73577682 -12 15 C-8.59008792 9.45889287 -4.38579957 4.79031507 0 0 Z " fill="#E1B562" transform="translate(1220,861)"/>
<path d="M0 0 C0.6875 1.8125 0.6875 1.8125 1 4 C-0.125 5.4375 -0.125 5.4375 -2 7 C-3.2684375 8.3303125 -3.2684375 8.3303125 -4.5625 9.6875 C-7 12 -7 12 -9 12 C-9 12.66 -9 13.32 -9 14 C-9.66 13.67 -10.32 13.34 -11 13 C-9.54300902 11.20724155 -8.08436345 9.41582771 -6.625 7.625 C-5.40683594 6.12839844 -5.40683594 6.12839844 -4.1640625 4.6015625 C-2 2 -2 2 0 0 Z " fill="#FCEFCA" transform="translate(1342,845)"/>
<path d="M0 0 C0.33 0.66 0.66 1.32 1 2 C-1.14187656 6.53573859 -4.4232965 9.5822611 -8 13 C-8.99 12.67 -9.98 12.34 -11 12 C-7.37 8.04 -3.74 4.08 0 0 Z " fill="#FDEBD5" transform="translate(1116,1101)"/>
<path d="M0 0 C1 2 1 2 0.3125 4.375 C-1.13371674 7.26743348 -2.42915785 9.03406189 -5 11 C-6.32 10.67 -7.64 10.34 -9 10 C-6.03 6.7 -3.06 3.4 0 0 Z " fill="#FDF2D2" transform="translate(1161,1051)"/>
<path d="M0 0 C0.33 0.66 0.66 1.32 1 2 C0 5 0 5 -3 7 C-4.19232613 9.05003955 -4.19232613 9.05003955 -5 11 C-5.99 11 -6.98 11 -8 11 C-8.66 12.32 -9.32 13.64 -10 15 C-10.66 14.67 -11.32 14.34 -12 14 C-8.04 9.38 -4.08 4.76 0 0 Z " fill="#E1B566" transform="translate(1233,846)"/>
<path d="M0 0 C0 4.87140024 -2.99424286 7.93836747 -6.25 11.375 C-6.8275 11.91125 -7.405 12.4475 -8 13 C-8.33 12.01 -8.66 11.02 -9 10 C-7.63671875 8.02734375 -7.63671875 8.02734375 -5.6875 5.9375 C-5.05199219 5.24527344 -4.41648437 4.55304688 -3.76171875 3.83984375 C-2.52249988 2.5456706 -1.26699399 1.26699399 0 0 Z " fill="#2F797F" transform="translate(1040,1206)"/>
<path d="M0 0 C0.33 0.99 0.66 1.98 1 3 C-1.31989611 6.35096105 -4.07157569 9.17616228 -7 12 C-7.99 11.67 -8.98 11.34 -10 11 C-8.52116808 9.35386588 -7.04192523 7.70810092 -5.5625 6.0625 C-4.73878906 5.14597656 -3.91507813 4.22945312 -3.06640625 3.28515625 C-1 1 -1 1 0 0 Z " fill="#FBEFCB" transform="translate(1172,1039)"/>
<path d="M0 0 C0.33 0.99 0.66 1.98 1 3 C-0.3125 5.1875 -0.3125 5.1875 -2 7 C-2.66 7 -3.32 7 -4 7 C-4.33 8.32 -4.66 9.64 -5 11 C-5.99 11 -6.98 11 -8 11 C-8 11.66 -8 12.32 -8 13 C-8.66 12.67 -9.32 12.34 -10 12 C-8.52149287 10.18696196 -7.04217625 8.37458402 -5.5625 6.5625 C-4.32693359 5.04849609 -4.32693359 5.04849609 -3.06640625 3.50390625 C-1 1 -1 1 0 0 Z " fill="#FBEEC8" transform="translate(1183,1026)"/>
<path d="M0 0 C0.33 1.32 0.66 2.64 1 4 C0.21625 4.598125 -0.5675 5.19625 -1.375 5.8125 C-4.14574323 7.91085249 -4.14574323 7.91085249 -6 11 C-6.99 10.67 -7.98 10.34 -9 10 C-7.8758824 8.70756532 -6.75067408 7.41607925 -5.625 6.125 C-4.99851562 5.40570312 -4.37203125 4.68640625 -3.7265625 3.9453125 C-2.52573166 2.5923402 -1.2791655 1.2791655 0 0 Z " fill="#FCF0CD" transform="translate(1266,933)"/>
<path d="M0 0 C0.99 0.33 1.98 0.66 3 1 C0.03 4.63 -2.94 8.26 -6 12 C-6.33 10.68 -6.66 9.36 -7 8 C-6.34 8 -5.68 8 -5 8 C-4.9175 7.4225 -4.835 6.845 -4.75 6.25 C-3.79468987 3.3840696 -2.21530827 2.0009236 0 0 Z " fill="#FDF3D3" transform="translate(1288,779)"/>
<path d="M0 0 C0.33 0.99 0.66 1.98 1 3 C-2.14594657 7.671254 -4.3616163 9.68874798 -10 11 C-6.79239749 7.19364503 -3.59253891 3.45436433 0 0 Z " fill="#FADFCA" transform="translate(1043,1182)"/>
<path d="M0 0 C0.33 0.66 0.66 1.32 1 2 C0.06553465 4.03144641 -0.93224776 6.03533587 -2 8 C-2.66 8 -3.32 8 -4 8 C-4 8.66 -4 9.32 -4 10 C-5.65 10.33 -7.3 10.66 -9 11 C-8.60167969 10.54109375 -8.20335937 10.0821875 -7.79296875 9.609375 C-5.08857938 6.47728415 -2.42008229 3.36122541 0 0 Z " fill="#FCEFCA" transform="translate(1217,988)"/>
<path d="M0 0 C1.3602366 0.03301545 2.72004838 0.09234554 4.078125 0.17578125 C4.77550781 0.19833984 5.47289062 0.22089844 6.19140625 0.24414062 C7.90457435 0.30281077 9.61663123 0.39248869 11.328125 0.48828125 C11.328125 0.81828125 11.328125 1.14828125 11.328125 1.48828125 C10.11576172 1.52695312 10.11576172 1.52695312 8.87890625 1.56640625 C0.74597522 1.84350365 0.74597522 1.84350365 -5.671875 6.48828125 C-6.331875 6.15828125 -6.991875 5.82828125 -7.671875 5.48828125 C-5.37862646 1.73515542 -4.46205632 0.59335855 0 0 Z " fill="#E2AF53" transform="translate(1292.671875,780.51171875)"/>
<path d="M0 0 C0.33 0.99 0.66 1.98 1 3 C-0.75 5.6875 -0.75 5.6875 -3 8 C-3.99 8 -4.98 8 -6 8 C-6 8.66 -6 9.32 -6 10 C-6.66 9.67 -7.32 9.34 -8 9 C-6.85459775 7.68712379 -5.70866567 6.37470979 -4.5625 5.0625 C-3.92441406 4.33160156 -3.28632812 3.60070312 -2.62890625 2.84765625 C-1.77458541 1.87860647 -0.91348825 0.91348825 0 0 Z " fill="#FCF1CC" transform="translate(1238,965)"/>
<path d="M0 0 C0.99 0.33 1.98 0.66 3 1 C0.36 4.3 -2.28 7.6 -5 11 C-6 8 -6 8 -5 5 C-3.37347684 3.29413425 -1.70993434 1.6222454 0 0 Z " fill="#FEF4D4" transform="translate(1228,848)"/>
<path d="M0 0 C0.99 0 1.98 0 3 0 C2.40716379 3.39192363 1.23256811 5.2107757 -1.0625 7.75 C-1.61035156 8.36359375 -2.15820312 8.9771875 -2.72265625 9.609375 C-3.14417969 10.06828125 -3.56570313 10.5271875 -4 11 C-4.33 9.68 -4.66 8.36 -5 7 C-4.01 7 -3.02 7 -2 7 C-2 6.01 -2 5.02 -2 4 C-1.34 4 -0.68 4 0 4 C0 2.68 0 1.36 0 0 Z " fill="#D7804A" transform="translate(1111,1101)"/>
<path d="M0 0 C0.33 0.66 0.66 1.32 1 2 C-1.12081604 6.32018082 -2.79664822 9.44796499 -7 12 C-7.66 11.67 -8.32 11.34 -9 11 C-6.03 7.37 -3.06 3.74 0 0 Z " fill="#E1B765" transform="translate(1151,941)"/>
<path d="M0 0 C0.33 0.66 0.66 1.32 1 2 C0.0625 4.125 0.0625 4.125 -1 6 C-1.99 6 -2.98 6 -4 6 C-4.66 7.65 -5.32 9.3 -6 11 C-6.99 10.67 -7.98 10.34 -9 10 C-6.03 6.7 -3.06 3.4 0 0 Z " fill="#FCEEC8" transform="translate(1297,897)"/>
<path d="M0 0 C4.29 0.33 8.58 0.66 13 1 C13 1.66 13 2.32 13 3 C13.99 3.33 14.98 3.66 16 4 C12.85681547 5.57159226 10.07066611 4.04018399 6.875 3.0625 C6.21628906 2.86720703 5.55757812 2.67191406 4.87890625 2.47070312 C3.25066448 1.98695014 1.62506818 1.49430925 0 1 C0 0.67 0 0.34 0 0 Z " fill="#F9DAC2" transform="translate(1036,780)"/>
<path d="M0 0 C0.99 0.33 1.98 0.66 3 1 C0.36 3.97 -2.28 6.94 -5 10 C-5.33 9.01 -5.66 8.02 -6 7 C-4.78515625 5.17578125 -4.78515625 5.17578125 -3.0625 3.3125 C-2.49660156 2.68988281 -1.93070313 2.06726562 -1.34765625 1.42578125 C-0.90292969 0.95527344 -0.45820312 0.48476562 0 0 Z " fill="#D8F4F5" transform="translate(1050,1192)"/>
<path d="M0 0 C0.99 0 1.98 0 3 0 C3.53341184 1.57914015 4.05125763 3.16354387 4.5625 4.75 C4.85253906 5.63171875 5.14257812 6.5134375 5.44140625 7.421875 C6.01697435 10.07834316 5.89248371 11.47031106 5 14 C4.16235732 12.04350603 3.33000941 10.08474444 2.5 8.125 C2.0359375 7.03445313 1.571875 5.94390625 1.09375 4.8203125 C0 2 0 2 0 0 Z " fill="#FDE8D4" transform="translate(1103,832)"/>
<path d="M0 0 C1.98 0 3.96 0 6 0 C6.3125 2.25 6.3125 2.25 6 5 C3.5 7.3125 3.5 7.3125 1 9 C1.33 7.35 1.66 5.7 2 4 C2.66 4 3.32 4 4 4 C4 3.01 4 2.02 4 1 C2.68 0.67 1.36 0.34 0 0 Z " fill="#E3AF50" transform="translate(1389,781)"/>
<path d="M0 0 C0.99 0.33 1.98 0.66 3 1 C0.36 3.97 -2.28 6.94 -5 10 C-5.33 9.01 -5.66 8.02 -6 7 C-5.67 6.34 -5.34 5.68 -5 5 C-4.34 5 -3.68 5 -3 5 C-2.5359375 4.0409375 -2.5359375 4.0409375 -2.0625 3.0625 C-1 1 -1 1 0 0 Z " fill="#DFF9F9" transform="translate(1036,1207)"/>
<path d="M0 0 C0.33 0.99 0.66 1.98 1 3 C-1.04074305 6.57130033 -2.55753136 8.7050209 -6 11 C-4.55662437 7.11398869 -2.98188088 2.98188088 0 0 Z " fill="#FDF5D9" transform="translate(1151,1062)"/>
<path d="M0 0 C0.99 0.33 1.98 0.66 3 1 C0.69 3.64 -1.62 6.28 -4 9 C-4.33 7.68 -4.66 6.36 -5 5 C-4.34 5 -3.68 5 -3 5 C-3 4.01 -3 3.02 -3 2 C-2.01 1.34 -1.02 0.68 0 0 Z " fill="#FEF5D7" transform="translate(1212,867)"/>
<path d="M0 0 C0.33 0.66 0.66 1.32 1 2 C-3.81776765 9.66742597 -3.81776765 9.66742597 -9 11 C-8.60167969 10.54109375 -8.20335937 10.0821875 -7.79296875 9.609375 C-5.08857938 6.47728415 -2.42008229 3.36122541 0 0 Z " fill="#30757C" transform="translate(1050,1195)"/>
<path d="M0 0 C0.99 0.33 1.98 0.66 3 1 C0.36 3.97 -2.28 6.94 -5 10 C-5.33 9.01 -5.66 8.02 -6 7 C-4.78515625 5.17578125 -4.78515625 5.17578125 -3.0625 3.3125 C-2.49660156 2.68988281 -1.93070313 2.06726562 -1.34765625 1.42578125 C-0.90292969 0.95527344 -0.45820312 0.48476562 0 0 Z " fill="#D2794A" transform="translate(1046,1175)"/>
<path d="M0 0 C0.33 1.32 0.66 2.64 1 4 C0.34 4.66 -0.32 5.32 -1 6 C-1.99 6 -2.98 6 -4 6 C-4.33 6.99 -4.66 7.98 -5 9 C-5.66 8.67 -6.32 8.34 -7 8 C-4.69 5.36 -2.38 2.72 0 0 Z " fill="#FCF0CA" transform="translate(1229,975)"/>
<path d="M0 0 C0.33 0.99 0.66 1.98 1 3 C-0.21484375 4.82421875 -0.21484375 4.82421875 -1.9375 6.6875 C-2.50339844 7.31011719 -3.06929687 7.93273437 -3.65234375 8.57421875 C-4.09707031 9.04472656 -4.54179688 9.51523437 -5 10 C-5.99 9.67 -6.98 9.34 -8 9 C-5.36 6.03 -2.72 3.06 0 0 Z " fill="#FBEBC3" transform="translate(1386,795)"/>
<path d="M0 0 C0.33 0.99 0.66 1.98 1 3 C-0.9375 5.6875 -0.9375 5.6875 -3 8 C-3.99 7.67 -4.98 7.34 -6 7 C-4.02 4.69 -2.04 2.38 0 0 Z " fill="#FDE6D3" transform="translate(1070,1152)"/>
<path d="M0 0 C0 3.58912412 -0.66436554 4.10857029 -3 6.6875 C-3.556875 7.31011719 -4.11375 7.93273438 -4.6875 8.57421875 C-5.120625 9.04472656 -5.55375 9.51523438 -6 10 C-6.33 9.01 -6.66 8.02 -7 7 C-4.69 4.69 -2.38 2.38 0 0 Z " fill="#2A2939" transform="translate(1242,1668)"/>
<path d="M0 0 C0.33 1.32 0.66 2.64 1 4 C1.66 4 2.32 4 3 4 C3 3.34 3 2.68 3 2 C3.99 2.33 4.98 2.66 6 3 C4.71937515 4.7074998 3.38232443 6.37373596 2 8 C1.34 8 0.68 8 0 8 C0 5.36 0 2.72 0 0 Z " fill="#FEF2CD" transform="translate(1114,975)"/>
<path d="M0 0 C0.33 1.32 0.66 2.64 1 4 C0.34 4 -0.32 4 -1 4 C-1.33 4.99 -1.66 5.98 -2 7 C-3.32 7.33 -4.64 7.66 -6 8 C-4.02 5.36 -2.04 2.72 0 0 Z " fill="#E2B665" transform="translate(1134,961)"/>
<path d="M0 0 C0.33 1.32 0.66 2.64 1 4 C0.360625 4.28875 -0.27875 4.5775 -0.9375 4.875 C-3.15206079 5.82823451 -3.15206079 5.82823451 -4 8 C-4.66 7.67 -5.32 7.34 -6 7 C-4.02 4.69 -2.04 2.38 0 0 Z " fill="#F9DBC4" transform="translate(1104,1114)"/>
<path d="M0 0 C0.33 0.99 0.66 1.98 1 3 C-0.98 4.98 -2.96 6.96 -5 9 C-5.66 8.67 -6.32 8.34 -7 8 C-4.69 5.36 -2.38 2.72 0 0 Z " fill="#E1B96A" transform="translate(1127,969)"/>
<path d="M0 0 C-1.39332574 3.36720387 -2.9789286 4.9859524 -6 7 C-6 3 -6 3 -4.6875 1.25 C-3 0 -3 0 0 0 Z " fill="#FEF4D4" transform="translate(1249,827)"/>
<path d="M0 0 C0.33 0.99 0.66 1.98 1 3 C-0.40445835 5.2636564 -2.1967913 7.0208685 -4 9 C-4.99 8.67 -5.98 8.34 -7 8 C-4.69 5.36 -2.38 2.72 0 0 Z " fill="#FCEDC5" transform="translate(1377,805)"/>
<path d="M0 0 C0.33 0.99 0.66 1.98 1 3 C-0.65 4.65 -2.3 6.3 -4 8 C-4.66 7.67 -5.32 7.34 -6 7 C-4.02 4.69 -2.04 2.38 0 0 Z " fill="#E1B867" transform="translate(1141,953)"/>
<path d="M0 0 C3.37503669 1.1858237 5.64722731 2.27573689 8 5 C3.48279689 5.36625971 3.48279689 5.36625971 1.1875 3.625 C0 2 0 2 0 0 Z " fill="#D67D4C" transform="translate(1063,791)"/>
<path d="M0 0 C0.33 0.66 0.66 1.32 1 2 C-0.1875 4.5625 -0.1875 4.5625 -2 7 C-3.32 7.33 -4.64 7.66 -6 8 C-4.02 5.36 -2.04 2.72 0 0 Z " fill="#FBEEC9" transform="translate(1398,781)"/>
<path d="M0 0 C2.31 0 4.62 0 7 0 C7 0.66 7 1.32 7 2 C7.66 2 8.32 2 9 2 C9 2.66 9 3.32 9 4 C6.03 3.01 3.06 2.02 0 1 C0 0.67 0 0.34 0 0 Z " fill="#FBE2CD" transform="translate(1052,785)"/>
<path d="M0 0 C-3.465 2.97 -3.465 2.97 -7 6 C-6.75 3.625 -6.75 3.625 -6 1 C-2.69333333 -1.34666667 -2.69333333 -1.34666667 0 0 Z " fill="#C97344" transform="translate(1039,1187)"/>
<path d="M0 0 C0.99 0.33 1.98 0.66 3 1 C1.35 2.65 -0.3 4.3 -2 6 C-2.66 5.67 -3.32 5.34 -4 5 C-2.68 3.35 -1.36 1.7 0 0 Z " fill="#31313E" transform="translate(1206,1023)"/>
<path d="M0 0 C0.66 0.99 1.32 1.98 2 3 C0.35 4.32 -1.3 5.64 -3 7 C-3.66 6.67 -4.32 6.34 -5 6 C-3.35 4.02 -1.7 2.04 0 0 Z " fill="#E0B561" transform="translate(1164,926)"/>
<path d="M0 0 C2.97 0 5.94 0 9 0 C7.515 2.475 7.515 2.475 6 5 C5.67 3.68 5.34 2.36 5 1 C3.35 1 1.7 1 0 1 C0 0.67 0 0.34 0 0 Z " fill="#D8B163" transform="translate(1390,780)"/>
</svg>
